/* XPM */
static char * blueE_xpm[] = {
"64 64 7 1",
" 	c #2792CE",
".	c #35ACD7",
"+	c #3FBADF",
"@	c #248BC9",
"#	c #2C9DD3",
"$	c #3BB4DB",
"%	c #2184C2",
" .++++++++++++.  .++++++++++++.  .++++++++++++.  .++++++++++++.@",
".@#..........#@##@#..........#@##@#..........#@##@#..........#@ ",
"+#@#........#@#$$#@#........#@#$$#@#........#@#$$#@#........#@ .",
"+.#@#......#@#$$$$#@#......#@#$$$$#@#......#@#$$$$#@#......#@ #.",
"+..#@#....#@#$$$$$$#@#....#@#$$$$$$#@#....#@#$$$$$$#@#....#@ ##.",
"+...#@@@@@@#$$$$$$$$#@@@@@@#$$$$$$$$#@@@@@@#$$$$$$$$#@@@@@@ ###.",
"+....@#$$$$$$$$$$$$$$######$$$$$$$$$$######$$$$$$$$$$$$$$#@####.",
"+....@$$$$$$$$$$$$$$$$$$$$$$$$$$$$$$$$$$$$$$$$$$$$$$$$$$$$@####.",
"+....@$$$$$$$$$$$$$$$$$$$$$$$$$$$$$$$$$$$$$$$$$$$$$$$$$$$$@####.",
"+....@$$$$$$$$$$$$$$$$$$$$$$$$$$$$$$$$$$$$$$$$$$$$$$$$$$$$@####.",
"+...#@$$$$$$$$$$%%%%%%%%%%%%%%%%%%%%%%%%%%%% $$$$$$$$$$$$$@ ###.",
"+..#@#$$$$$$$$$$%%%%%%%%%%%%%%%%%%%%%%%%%%%% $$$$$$$$$$$$$#@ ##.",
"+.#@#$$$$$$$$$$$%%%%%%%%%%%%%%%%%%%%%%%%%%%% $$$$$$$$$$$$$$#@ #.",
"+#@#$$$$$$$$$$$$%%%%%%%%%%%%%%%%%%%%%%%%%%%% $$$$$$$$$$$$$$$#@ .",
".@#$$$$$$$$$$$$$%%%%%%%%%%%%%%%%%%%%%%%%%%%% $$$$$$$$$$$$$$$$#@ ",
" #$$$$$$$$$$$$$$%%%%%%.$$$$$$$$$$$$$$$$$$$$$$$$$$$$$$$$$$$$$$$#%",
" #$$$$$$$$$$$$$$%%%%%%.$$$$$$$$$$$$$$$$$$$$$$$$$$$$$$$$$$$$$$$#%",
".@#$$$$$$$$$$$$$%%%%%%.$$$$$$$$$$$$$$$$$$$$$$$$$$$$$$$$$$$$$$#@ ",
"+#@#$$$$$$$$$$$$%%%%%%.$$$$$$$$$$$$$$$$$$$$$$$$$$$$$$$$$$$$$#@ .",
"+.#@#$$$$$$$$$$$%%%%%%.$$$$$$$$$$$$$$$$$$$$$$$$$$$$$$$$$$$$#@ #.",
"+..#@#$$$$$$$$$$%%%%%%.$$$$$$$$$$$$$$$$$$$$$$$$$$$$$$$$$$$#@ ##.",
"+...#@#$$$$$$$$$%%%%%%.$$$$$$$$$$$$$$$$$$$$$$$$$$$$$$$$$$#@ ###.",
"+....@#$$$$$$$$$%%%%%%.$$$$$$$$$$$$$$$$$$$$$$$$$$$$$$$$$$#@####.",
"+....@#$$$$$$$$$%%%%%%.$$$$$$$$$$$$$$$$$$$$$$$$$$$$$$$$$$#@####.",
"+....@#$$$$$$$$$%%%%%%.$$$$$$$$$$$$$$$$$$$$$$$$$$$$$$$$$$#@####.",
"+....@#$$$$$$$$$%%%%%%.$$$$$$$$$$$$$$$$$$$$$$$$$$$$$$$$$$#@####.",
"+...#@#$$$$$$$$$%%%%%%.$$$$$$$$$$$$$$$$$$$$$$$$$$$$$$$$$$#@ ###.",
"+..#@#$$$$$$$$$$%%%%%%.$$$$$$$$$$$$$$$$$$$$$$$$$$$$$$$$$$$#@ ##.",
"+.#@#$$$$$$$$$$$%%%%%%%%%%%%%%%%%%%%%%%%%%% $$$$$$$$$$$$$$$#@ #.",
"+#@#$$$$$$$$$$$$%%%%%%%%%%%%%%%%%%%%%%%%%%% $$$$$$$$$$$$$$$$#@ .",
".@#$$$$$$$$$$$$$%%%%%%%%%%%%%%%%%%%%%%%%%%% $$$$$$$$$$$$$$$$$#@ ",
" #$$$$$$$$$$$$$$%%%%%%%%%%%%%%%%%%%%%%%%%%% $$$$$$$$$$$$$$$$$$#%",
" #$$$$$$$$$$$$$$%%%%%%%%%%%%%%%%%%%%%%%%%%% $$$$$$$$$$$$$$$$$$#%",
".@#$$$$$$$$$$$$$%%%%%%.$$$$$$$$$$$$$$$$$$$$$$$$$$$$$$$$$$$$$$#@ ",
"+#@#$$$$$$$$$$$$%%%%%%.$$$$$$$$$$$$$$$$$$$$$$$$$$$$$$$$$$$$$#@ .",
"+.#@#$$$$$$$$$$$%%%%%%.$$$$$$$$$$$$$$$$$$$$$$$$$$$$$$$$$$$$#@ #.",
"+..#@#$$$$$$$$$$%%%%%%.$$$$$$$$$$$$$$$$$$$$$$$$$$$$$$$$$$$#@ ##.",
"+...#@#$$$$$$$$$%%%%%%.$$$$$$$$$$$$$$$$$$$$$$$$$$$$$$$$$$#@ ###.",
"+....@#$$$$$$$$$%%%%%%.$$$$$$$$$$$$$$$$$$$$$$$$$$$$$$$$$$#@####.",
"+....@#$$$$$$$$$%%%%%%.$$$$$$$$$$$$$$$$$$$$$$$$$$$$$$$$$$#@####.",
"+....@#$$$$$$$$$%%%%%%.$$$$$$$$$$$$$$$$$$$$$$$$$$$$$$$$$$#@####.",
"+....@#$$$$$$$$$%%%%%%.$$$$$$$$$$$$$$$$$$$$$$$$$$$$$$$$$$#@####.",
"+...#@#$$$$$$$$$%%%%%%.$$$$$$$$$$$$$$$$$$$$$$$$$$$$$$$$$$#@ ###.",
"+..#@#$$$$$$$$$$%%%%%%.$$$$$$$$$$$$$$$$$$$$$$$$$$$$$$$$$$$#@ ##.",
"+.#@#$$$$$$$$$$$%%%%%%.$$$$$$$$$$$$$$$$$$$$$$$$$$$$$$$$$$$$#@ #.",
"+#@#$$$$$$$$$$$$%%%%%%.$$$$$$$$$$$$$$$$$$$$$$$$$$$$$$$$$$$$$#@ .",
".@#$$$$$$$$$$$$$%%%%%%.$$$$$$$$$$$$$$$$$$$$$$$$$$$$$$$$$$$$$$#@ ",
" #$$$$$$$$$$$$$$%%%%%%.$$$$$$$$$$$$$$$$$$$$$$$$$$$$$$$$$$$$$$$#%",
" #$$$$$$$$$$$$$$%%%%%%.$$$$$$$$$$$$$$$$$$$$$$$$$$$$$$$$$$$$$$$#%",
".@#$$$$$$$$$$$$$%%%%%%.$$$$$$$$$$$$$$$$$$$$$$$$$$$$$$$$$$$$$$#@ ",
"+#@#$$$$$$$$$$$$%%%%%%%%%%%%%%%%%%%%%%%%%%%%%.$$$$$$$$$$$$$$#@ .",
"+.#@#$$$$$$$$$$$%%%%%%%%%%%%%%%%%%%%%%%%%%%%%.$$$$$$$$$$$$$#@ #.",
"+..#@#$$$$$$$$$$%%%%%%%%%%%%%%%%%%%%%%%%%%%%%.$$$$$$$$$$$$#@ ##.",
"+...#@$$$$$$$$$$%%%%%%%%%%%%%%%%%%%%%%%%%%%%%.$$$$$$$$$$$$@ ###.",
"+....@$$$$$$$$$$%%%%%%%%%%%%%%%%%%%%%%%%%%%%%.$$$$$$$$$$$$@####.",
"+....@$$$$$$$$$$$$$$$$$$$$$$$$$$$$$$$$$$$$$$$$$$$$$$$$$$$$@####.",
"+....@$$$$$$$$$$$$$$$$$$$$$$$$$$$$$$$$$$$$$$$$$$$$$$$$$$$$@####.",
"+....@#$$$$$$$$$$$$$$######$$$$$$$$$$######$$$$$$$$$$$$$$#@####.",
"+...#@@@@@@#$$$$$$$$#@@@@@@#$$$$$$$$#@@@@@@#$$$$$$$$#@@@@@@ ###.",
"+..#@ #### @#$$$$$$#@ #### @#$$$$$$#@ #### @#$$$$$$#@ #### @ ##.",
"+.#@ ###### @#$$$$#@ ###### @#$$$$#@ ###### @#$$$$#@ ###### @ #.",
"+#@ ######## @#$$#@ ######## @#$$#@ ######## @#$$#@ ######## @ .",
".@ ########## @##@ ########## @##@ ########## @##@ ########## @ ",
"@ ............ %% ............ %% ............ %% ............ %"};
