/* XPM */
static char *door_23[] = {
/* columns rows colors chars-per-pixel */
"64 64 16 1 ",
"  c #6EC59F",
". c #59B292",
"X c #4FAB90",
"o c #53A178",
"O c #3E816B",
"+ c #4C9484",
"@ c #396E59",
"# c #BF7141",
"$ c #C48938",
"% c #D49943",
"& c #E6B450",
"* c #3B6655",
"= c #D92323",
"- c #A31818",
"; c #68C09C",
": c #8A1818",
/* pixels */
"        .   ......      ...    .....            .......XXXXXXXXo",
" .........XXX..........XXXXX...XX...................XXXXXXXXXooO",
" ..........XXXXXXXooooo++++++++++ooXXoXXXXXX...XXXXXXooo+++oooO@",
" .............XXXXXXoo+++oo+++++++oooX..XX....XX.Xooooo++oooo+O@",
" ............X.+############+++oooXX############+ooXoo+oooo+++O@",
" .......XX....++$%%%%%%%%%%$++++oX.X$%%%%%%%%%%$O+Xooooooo+++oO@",
" ....XXX  +...++$%%%%%%%%%%%++oo..XX%%%%%%%%%%%$OOXXoX  +++ooo@@",
" ...XXX  Xo+..++$%%%%%%%%%%%oooXX...%%%%%%%%%%%$OOooX  Xo+++oo@@",
" ...XX XoooOX.++$%%%%%%%%%&&oo..XX.X&&%%%%%%%%%$OOoX XoooO+ooo@@",
" ....XXo+o+OXX++$%%%%%%%&&&&XoX....X&&&&%%%%%%%$OOXXXo+o+Oooo+@@",
" ..X.X+oo+OOXX++$%%%%%%&&&&&oXX...XX&&&&&%%%%%%$OOoo+oo+OOo++o@@",
" ..XXXo+OOOoXX++$%%%%%%&&&&&XX....XX&&&&&%%%%%%$OOooo+OOOo++oo@@",
" .XXXooooooooX++$%%%%%&&&&&&.X...XX.&&&&&&%%%%%$OOXXooooooooo+@*",
" .XXXooooooooX+O$%%%%%&&&&&&....XX..&&&&&&%%%%%$OOXoooooooo+++@*",
"..XXo+++OOOOOOOO$%%%%%&&&&&&..XX....&&&&&&%%%%%$OOOOOOOOOO+++o@*",
".XXX+++OOOOOOOOO$%%%%%&&&&&&........&&&&&&%%%%%$OOOOOOOOOOO+oo@*",
".XXo#$$$$$$$$$$$%%%%%%&&&&&&........&&&&&&%%%%%%$$$$$$$$$$$#oo**",
".XXo#%%%%%%%%%%%%%%%%%&&&&&&......XX&&&&&&%%%%%%%%%%%%%%%%%#oo**",
"..Xo#%%%%%%%%%%%%%%%%&&&&&&&.....XX.&&&&&&&%%%%%%%%%%%%%%%%#oo**",
"...o#%%%%%%%%%%%%%%%%&&&&&&&........&&&&&&&%%%%%%%%%%%%%%%%#oo**",
"...X#%%%%%%%%%%%%%%%&&&&&&&&........&&&&&&&&%%%%%%%%%%%%%%%#oo@*",
"..X.#%%%%%%%%%%%%%&&&&&&&&&&........&&&&&&&&&&%%%%%%%%%%%%%#oo@*",
"....#%%%%%%%&&&&&&&&&&&&&&&&.......X&&&&&&&&&&&&&&&&%%%%%%%#o+@*",
"....#%%%%%&&&&&&&&&&&&&&&&&&......XX&&&&&&&&&&&&&&&&&&%%%%%#o+O*",
" ...#%%%%&&&&&&&&&&&&&&&&&&&....XX..&&&&&&&&&&&&&&&&&&&%%%%#++O@",
" ...#%%%%&&&&&&&&&&&&&&&&&&&........&&&&&&&&&&&&&&&&&&&%%%%#++O@",
" ...#%%%&&&&&&&&&&&&&&&&&&&%o++++++o%&&&&&&&&&&&&&&&&&&&%%%#+o@@",
" ...#$%%&&&&&&&&&&&&&&&&&&%%++++++++%%&&&&&&&&&&&&&&&&&&%%$#o+@@",
" .......X.................o+=======-;.X....XXX.XX..XXooo++oo++@@",
" ...X..XX.................++======-:;;....XXXXX...XXoooooooo+o@*",
" ...X..XX.................++==----::;;...XXX......XooooooXXoo+O*",
" ..X....X.................++==----::;;..XX.......XXoooXXXoooo+@*",
" X.X......................++==----::;;..........XXooXXX.oooXoo@*",
" X.XX.....................++==----::;;..........XXoXXX.Xoo.Xoo@*",
" X.XX...........X....X....++=-::::::;;..........XoXX.X.ooX..Xo@*",
" XXX............XX..X.....o+-:::::::;..........XooX..XXoXX.XXo@*",
" XXX#$%%&&&&&&&&&&&&&&&&&&%%;;;;;;;;%%&&&&&&&&&&&&&&&&&&%%$#oo@@",
" XX.#%%%&&&&&&&&&&&&&&&&&&&%.;;;;;;.%&&&&&&&&&&&&&&&&&&&%%%$oX@@",
" ...#%%%%&&&&&&&&&&&&&&&&&&&....X...&&&&&&&&&&&&&&&&&&&%%%%$oX@@",
" ..X#%%%%&&&&&&&&&&&&&&&&&&&........&&&&&&&&&&&&&&&&&&&%%%%$Xo@@",
" ..X#%%%%%&&&&&&&&&&&&&&&&&&........&&&&&&&&&&&&&&&&&&%%%%%$oo@@",
" ...#%%%%%%%&&&&&&&&&&&&&&&&........&&&&&&&&&&&&&&&&%%%%%%%$ooO@",
" .X.#%%%%%%%%%%%%%&&&&&&&&&&........&&&&&&&&&&%%%%%%%%%%%%%$XoO@",
" .XX#%%%%%%%%%%%%%%%&&&&&&&&........&&&&&&&&%%%%%%%%%%%%%%%$XoO@",
" .XX#%%%%%%%%%%%%%%%%&&&&&&&........&&&&&&&%%%%%%%%%%%%%%%%$ooO@",
" XXX#%%%%%%%%%%%%%%%%&&&&&&&.....X..&&&&&&&%%%%%%%%%%%%%%%%$ooO@",
" XXo#%%%%%%%%%%%%%%%%%&&&&&&....X...&&&&&&%%%%%%%%%%%%%%%%%$ooO@",
" Xoo#$$$$$$$$$$$%%%%%%&&&&&&..XXX...&&&&&&%%%%%%$$$$$$$$$$$$oX@@",
" Xooooooooooooo+$%%%%%&&&&&&XXXX....&&&&&&%%%%%$X...........Xo@*",
" XoXoooooooooo+O$%%%%%&&&&&&oXXX....&&&&&&%%%%%$oX.........oXX@*",
" .XXoooXXXXXXXOO$%%%%%&&&&&&XXX....X&&&&&&%%%%%$oooXXo++oooo.X@*",
" .XooooooXXXX.OO$%%%%%&&&&&&XXX....X&&&&&&%%%%%$ooXX++oooooX..O*",
" XoooooX  +XXXOO$%%%%%%&&&&&.XX.X..o&&&&&%%%%%%$oooooX  +oo...@*",
" XoXooX  Xo+XXOO$%%%%%%&&&&&.X..X.Xo&&&&&%%%%%%$ooooX  Xo+X.X.@*",
" XXXoo XoooOoXOO$%%%%%%%&&&&XX..XXX+&&&&%%%%%%%$oooo XoooOX.XX@*",
" .XoooXo+o+OoXOO$%%%%%%%%%&&XX.XXXo+&&%%%%%%%%%$ooooXo+o+O.XXX@*",
" .oo+o+oo+OOXoOO$%%%%%%%%%%%X..XXXo+%%%%%%%%%%%$ooXX+oo+OOXXXX@@",
" Xo+++o+OOOoXXOO$%%%%%%%%%%%X.XXXo++%%%%%%%%%%%$ooXoo+OOOXXXXXO@",
" Xooo+++oo+oooOO$%%%%%%%%%%$..XXX+++$%%%%%%%%%%$o.XXXoooXXXX..O@",
" XooXXoo++ooooXO############.XXXo+++############X...XXXXXXX..XO@",
"..oXXooXooooXXXooooo++++++ooXXXooo+++oooo++oXXooXX...XXXX..ooXO*",
" .XXXXXooooooooooo++++++++++ooXXXoo+++oooo+++ooXXXXXX..XXXXXoo@*",
".oOO@OOO@OO@@@***@@@@@@@OOO@@@*@@@@******@@@@OOOOO@O@@@*@@@OO@@*",
"oO@@@@@@@@@@@@**********@@@@****************@@@@@@@@****@@@@****"
};
