/* XPM */
static char * grayN_xpm[] = {
"64 64 7 1",
" 	c #303336",
".	c #3B3F42",
"+	c #404649",
"@	c #2C2E32",
"#	c #36393D",
"$	c #3E4246",
"%	c #292B2F",
" .++++++++++++.  .++++++++++++.  .++++++++++++.  .++++++++++++.@",
".@#..........#@##@#..........#@##@#..........#@##@#..........#@ ",
"+#@#........#@#$$#@#........#@#$$#@#........#@#$$#@#........#@ .",
"+.#@#......#@#$$$$#@#......#@#$$$$#@#......#@#$$$$#@#......#@ #.",
"+..#@#....#@#$$$$$$#@#....#@#$$$$$$#@#....#@#$$$$$$#@#....#@ ##.",
"+...#@@@@@@#$$$$$$$$#@@@@@@#$$$$$$$$#@@@@@@#$$$$$$$$#@@@@@@ ###.",
"+....@#$$$$$$$$$$$$$$######$$$$$$$$$$######$$$$$$$$$$$$$$#@####.",
"+....@$$$$$$$$$$$$$$$$$$$$$$$$$$$$$$$$$$$$$$$$$$$$$$$$$$$$@####.",
"+....@$$$$$$$$$$$$$$$$$$$$$$$$$$$$$$$$$$$$$$$$$$$$$$$$$$$$@####.",
"+....@$$$$$$$$$$$$$$$$$$$$$$$$$$$$$$$$$$$$$$$$$$$$$$$$$$$$@####.",
"+...#@$$$$$$$$@%%%%%%%#$$$$$$$$$$$$$$$$$$$ %%%%%.$$$$$$$$$@ ###.",
"+..#@#$$$$$$$$@%%%%%%%%.$$$$$$$$$$$$$$$$$$ %%%%%.$$$$$$$$$#@ ##.",
"+.#@#$$$$$$$$$@%%%%%%%% $$$$$$$$$$$$$$$$$$ %%%%%.$$$$$$$$$$#@ #.",
"+#@#$$$$$$$$$$@%%%%%%%%%.$$$$$$$$$$$$$$$$$ %%%%%.$$$$$$$$$$$#@ .",
".@#$$$$$$$$$$$@%%%%%%%%% $$$$$$$$$$$$$$$$$ %%%%%.$$$$$$$$$$$$#@ ",
" #$$$$$$$$$$$$@%%%%%%%%%%.$$$$$$$$$$$$$$$$ %%%%%.$$$$$$$$$$$$$#%",
" #$$$$$$$$$$$$@%%%%%%%%%% $$$$$$$$$$$$$$$$ %%%%%.$$$$$$$$$$$$$#%",
".@#$$$$$$$$$$$@%%%%%@%%%%%.$$$$$$$$$$$$$$$ %%%%%.$$$$$$$$$$$$#@ ",
"+#@#$$$$$$$$$$@%%%%%#%%%%%@$$$$$$$$$$$$$$$ %%%%%.$$$$$$$$$$$#@ .",
"+.#@#$$$$$$$$$@%%%%%$@%%%%%#$$$$$$$$$$$$$$ %%%%%.$$$$$$$$$$#@ #.",
"+..#@#$$$$$$$$@%%%%%$.%%%%%@$$$$$$$$$$$$$$ %%%%%.$$$$$$$$$#@ ##.",
"+...#@#$$$$$$$@%%%%%$$ %%%%%#$$$$$$$$$$$$$ %%%%%.$$$$$$$$#@ ###.",
"+....@#$$$$$$$@%%%%%$$.%%%%%@$$$$$$$$$$$$$ %%%%%.$$$$$$$$#@####.",
"+....@#$$$$$$$@%%%%%$$$ %%%%%#$$$$$$$$$$$$ %%%%%.$$$$$$$$#@####.",
"+....@#$$$$$$$@%%%%%$$$.%%%%%%.$$$$$$$$$$$ %%%%%.$$$$$$$$#@####.",
"+....@#$$$$$$$@%%%%%$$$$ %%%%%#$$$$$$$$$$$ %%%%%.$$$$$$$$#@####.",
"+...#@#$$$$$$$@%%%%%$$$$.%%%%%%.$$$$$$$$$$ %%%%%.$$$$$$$$#@ ###.",
"+..#@#$$$$$$$$@%%%%%$$$$$#%%%%% $$$$$$$$$$ %%%%%.$$$$$$$$$#@ ##.",
"+.#@#$$$$$$$$$@%%%%%$$$$$.%%%%%%.$$$$$$$$$ %%%%%.$$$$$$$$$$#@ #.",
"+#@#$$$$$$$$$$@%%%%%$$$$$$#%%%%% $$$$$$$$$ %%%%%.$$$$$$$$$$$#@ .",
".@#$$$$$$$$$$$@%%%%%$$$$$$$@%%%%%.$$$$$$$$ %%%%%.$$$$$$$$$$$$#@ ",
" #$$$$$$$$$$$$@%%%%%$$$$$$$#%%%%% $$$$$$$$ %%%%%.$$$$$$$$$$$$$#%",
" #$$$$$$$$$$$$@%%%%%$$$$$$$$@%%%%%.$$$$$$$ %%%%%.$$$$$$$$$$$$$#%",
".@#$$$$$$$$$$$@%%%%%$$$$$$$$#%%%%%@$$$$$$$ %%%%%.$$$$$$$$$$$$#@ ",
"+#@#$$$$$$$$$$@%%%%%$$$$$$$$$@%%%%%#$$$$$$ %%%%%.$$$$$$$$$$$#@ .",
"+.#@#$$$$$$$$$@%%%%%$$$$$$$$$.%%%%%@$$$$$$ %%%%%.$$$$$$$$$$#@ #.",
"+..#@#$$$$$$$$@%%%%%$$$$$$$$$$ %%%%%#$$$$$ %%%%%.$$$$$$$$$#@ ##.",
"+...#@#$$$$$$$@%%%%%$$$$$$$$$$.%%%%%@$$$$$ %%%%%.$$$$$$$$#@ ###.",
"+....@#$$$$$$$@%%%%%$$$$$$$$$$$ %%%%%#$$$$ %%%%%.$$$$$$$$#@####.",
"+....@#$$$$$$$@%%%%%$$$$$$$$$$$.%%%%%@$$$$ %%%%%.$$$$$$$$#@####.",
"+....@#$$$$$$$@%%%%%$$$$$$$$$$$$ %%%%%#$$$ %%%%%.$$$$$$$$#@####.",
"+....@#$$$$$$$@%%%%%$$$$$$$$$$$$.%%%%%%.$$ %%%%%.$$$$$$$$#@####.",
"+...#@#$$$$$$$@%%%%%$$$$$$$$$$$$$ %%%%% $$ %%%%%.$$$$$$$$#@ ###.",
"+..#@#$$$$$$$$@%%%%%$$$$$$$$$$$$$.%%%%%%.$ %%%%%.$$$$$$$$$#@ ##.",
"+.#@#$$$$$$$$$@%%%%%$$$$$$$$$$$$$$#%%%%% $ %%%%%.$$$$$$$$$$#@ #.",
"+#@#$$$$$$$$$$@%%%%%$$$$$$$$$$$$$$$@%%%%%. %%%%%.$$$$$$$$$$$#@ .",
".@#$$$$$$$$$$$@%%%%%$$$$$$$$$$$$$$$#%%%%%  %%%%%.$$$$$$$$$$$$#@ ",
" #$$$$$$$$$$$$@%%%%%$$$$$$$$$$$$$$$$@%%%%%@%%%%%.$$$$$$$$$$$$$#%",
" #$$$$$$$$$$$$@%%%%%$$$$$$$$$$$$$$$$#%%%%%%%%%%%.$$$$$$$$$$$$$#%",
".@#$$$$$$$$$$$@%%%%%$$$$$$$$$$$$$$$$$@%%%%%%%%%%.$$$$$$$$$$$$#@ ",
"+#@#$$$$$$$$$$@%%%%%$$$$$$$$$$$$$$$$$#%%%%%%%%%%.$$$$$$$$$$$#@ .",
"+.#@#$$$$$$$$$@%%%%%$$$$$$$$$$$$$$$$$$ %%%%%%%%%.$$$$$$$$$$#@ #.",
"+..#@#$$$$$$$$@%%%%%$$$$$$$$$$$$$$$$$$.%%%%%%%%%.$$$$$$$$$#@ ##.",
"+...#@$$$$$$$$@%%%%%$$$$$$$$$$$$$$$$$$$ %%%%%%%%.$$$$$$$$$@ ###.",
"+....@$$$$$$$$@%%%%%$$$$$$$$$$$$$$$$$$$.%%%%%%%%.$$$$$$$$$@####.",
"+....@$$$$$$$$$$$$$$$$$$$$$$$$$$$$$$$$$$$$$$$$$$$$$$$$$$$$@####.",
"+....@$$$$$$$$$$$$$$$$$$$$$$$$$$$$$$$$$$$$$$$$$$$$$$$$$$$$@####.",
"+....@#$$$$$$$$$$$$$$######$$$$$$$$$$######$$$$$$$$$$$$$$#@####.",
"+...#@@@@@@#$$$$$$$$#@@@@@@#$$$$$$$$#@@@@@@#$$$$$$$$#@@@@@@ ###.",
"+..#@ #### @#$$$$$$#@ #### @#$$$$$$#@ #### @#$$$$$$#@ #### @ ##.",
"+.#@ ###### @#$$$$#@ ###### @#$$$$#@ ###### @#$$$$#@ ###### @ #.",
"+#@ ######## @#$$#@ ######## @#$$#@ ######## @#$$#@ ######## @ .",
".@ ########## @##@ ########## @##@ ########## @##@ ########## @ ",
"@ ............ %% ............ %% ............ %% ............ %"};
