/* XPM */
static char *metE[] = {
/* columns rows colors chars-per-pixel */
"64 64 7 1 ",
"  c #6EC59F",
". c #63BB98",
"X c #59B292",
"o c #53A178",
"O c #4C9484",
"+ c #3E816B",
"@ c #3C735D",
/* pixels */
"          ..  ........    ..                    ..............Xo",
" ...............................          ............XXXXXXXXoO",
" .XXXXXXXXXXXXXXXXXXXXXXXXXXXXXXXXXXXXXXXXXXXXXXXXXXXXXXXXXXXXO+",
" .XXXXXXXXXXXXXXXXXXXXXXXXXXXXXXXXXXXXXXXXXXXXXXXXXXXXXXXXXXXXO+",
" .XXXXXXXXXXXXXXXooooooooooooooooooooooooooooooXXXXXXXXXXXXXXXO+",
" .XXXXXXXXXXXXXXoooOOOoooOOOOOOOOOOOooooOOOOOoooXXXXXXXXXXXXXXO+",
" .XXXXX.  oXXXXXO+@@@@@@@@@@@@@@@@@@@@@@@@@@@@@@XXXXX.  oXXXXXO+",
" .XXXX.  .XoXXXX.O+@@@@@@@@@@@@@@@@@@@@@@@@@@@@.XXXX.  .XoXXXXO+",
" .XXXX .XXX+XXXX..O+@@@@@@@@@@@@@@@@@@@@@@@@@@..XXXX .XXX+XXXXO+",
" .XXXX.XoXo+XXXXX. O+@@@@@@@@@@@@@@@@@@@@@@@@..XXXXX.XoXo+XXXXO+",
" .XXXXoXXo++XXXXXX. O++++++++++++++++++++++@. XXXXXXoXXo++XXXXO+",
" .XXXXXo+++XXXXXXXX  O++++++++++++++++++++@  XXXXXXXXo+++XXXXX++",
" .XXXXXXXXXXXXXXXXXX  O++++++++++++++++++@  XXXXXXXXXXXXXXXXXX+@",
" .XXXXXXXXXXXXXXXXXXX  O++++++++++++++++@  XXXXXXXXXXXXXXXXXXXO@",
" .XXXXoXXXXXXXXXXXXXXX  O++++++++++++++@  XXXXXXXXXXXXXXXoXXXXO@",
" .XXXXooXXXXXXXXXXXXXXX  O++++++++++++@  XXXXXXXXXXXXXXXooXXXXO@",
" .XXXX@ooXXXXXXXXXXXXXXX  O++++++++++@  XXXXXXXXXXXXXXXoo@XXXXO@",
" .XXXX@@ooXXXXXXXXXXXXXXX  O++++++++@  XXXXXXXXXXXXXXXoo@@XXXXO@",
" .XXXX@@@ooXXXXXXXXXXXXXXX  O++++++O  XXXXXXXXXXXXXXXoo@@@XXXX+@",
" .XXXX@@@@ooXXXXXXXXXXXXXXX  OOOOOO  XXXXXXXXXXXXXXXoo@@@@XXXX+@",
" .XXXX@@@@@ooXXXXXXXXXXXXXXX        XXXXXXXXXXXXXXXoo@@@@@XXXX+@",
" .XXXX+@@@@@ooXXXXXXXXXXXXXXX      XXXXXXXXXXXXXXXoo@+@@@@XXXXO@",
" .XXXXO+@@@@@ooXXXXXXXXXXXXXXXXXXXXXXXXXXXXXXXXXXoo@++@@@@XXXXO@",
" .XXXXO++@@@@@ooXXXXXXXXXXXXXXXXXXXXXXXXXXXXXXXXoo@+++@@@@XXXXO@",
" .XXXXO+++@@@@@ooXXXXXXXO++@@@@@@@@@@@@@XXXXXXXoo@++++@@@@XXXXO@",
" .XXXXO++++@@@@@ooXXXXXX++@@@@@@@@@@@@@@XXXXXXoo@+++++@@@@XXXXO@",
" .XXXXO+++++@@@@@ooXXXXXO+...........X@@XXXXXoo@++++++@@@@XXXX+@",
" .XXXXO++++++@@@@@ooXXXXO+..........Xo@@XXXXoo@+++++++@@@@XXXXO@",
" .XXXXO+++++++@@@@@ooXXXOOXXXXXXXXXXoo@@XXXoo@++++++++@@@@XXXXO+",
" .XXXXO++++++++@@@@@ooXXOOXXXXXXXXXXoo@@XXoo@+++++++++@@@@XXXX++",
" .XXXXO+++++++++@@@@ooXXO+XXXXXXXXXXoo@@XXoo++++++++++@@@@XXXX+@",
" .XXXXO++++++++++@@@ooXXO+XXXXXXXXXXoo@@XXoo++++++++++@@@@XXXX+@",
" .XXXXO+++++++++++@@ooXXO+XXXXXXXXXXoO@@XXoo++++++++++@@@@XXXXO@",
" .XXXXO++++++++++++@ooXXOOXXXXXXXXXXoO@@XXoo++++++++++@@@@XXXXO@",
" .XXXXO++++++++++++OXoXXOOXXXXXXXXXXoo@@XXoXO+++++++++@@@@XXXXO+",
" .XXXXO+++++++++++O..XXXOOXXXXXXXXXXoO@@XXX.XO++++++++@@@@XXXXO+",
" .XXXXO++++++++++O. XXXXOOooooooooooOO@+XXXX. O+++++++@@@@XXXXO+",
" .XXXXO+++++++++O. XXXXXOOoooooooooOOO+OXXXXX  O++++++@@@@XXXXO+",
" .XXXXO++++++++O  XXXXXXOOOOOOO+++++++OOXXXXXX  O+++++@@@@XXXXO+",
" .XXXXO+++++++O  XXXXXXXOOOOOOOOOOOOOOOOXXXXXXX  O++++@@@@XXXXO+",
" .XXXXO++++++O  XXXXXXXX.              .XXXXXXXX  O+++@@@@XXXXO+",
" .XXXXO+++++O  XXXXXXXXX................XXXXXXXXX  O++@@@@XXXXO+",
" .XXXXO++++O  XXXXXXXXXXXXXXXooooooXXXXXXXXXXXXXXX  O+@@@@XXXX++",
" .XXXXO+++O  XXXXXXXXXXXXXXXooooooooXXXXXXXXXXXXXXX  O+@@@XXXX++",
" .XXXXO++O  XXXXXXXXXXXXXXXoo+@@@@@ooXXXXXXXXXXXXXXX  O+@@XXXX++",
" .XXXXO+O  XXXXXXXXXXXXXXXoo+++@@@@@ooXXXXXXXXXXXXXXX  O+@XXXX++",
" .XXXXOO  XXXXXXXXXXXXXXXoo+++++@@@@@ooXXXXXXXXXXXXXXX  O+XXXXO+",
" .XXXXO  XXXXXXXXXXXXXXXoo+++++++@@@@@ooXXXXXXXXXXXXXXX .OXXXXO+",
" .XXXX  XXXXXXXXXXXXXXXoo+++++++++@@@@@ooXXXXXXXXXXXXXXX .XXXXO@",
" .XXXX XXXXXXXXXXXXXXXoo+++++++++++@@@@@ooXXXXXXXXXXXXXXX.XXXXO@",
" .XXXXXXXXXXXXXXXXXXXoo+++++++++++++@@@@@ooXXXXXXXXXXXXXXXXXXX+@",
" .XXXXXXXXXXXXXXXXXXoo+++++++++++++++@@@@@ooXXXXXXXXXXXXXXXXXXO@",
" .XXXXX.  oXXXXXXXXoo+++++++++++++++++@@@@@ooXXXXXXXX.  oXXXXXO@",
" .XXXX.  .XoXXXXXXoo+++++++++++++++++++@@@@@ooXXXXXX.  .XoXXXX+@",
" .XXXX .XXX+XXXXXoo+++++++++++++++++++++@@@@@ooXXXXX .XXX+XXXX+@",
" .XXXX.XoXo+XXXXoo+++++++++++++++++++++++@@@@@ooXXXX.XoXo+XXXX+@",
" .XXXXoXXo++XXXoo+++++++++++++++++++++++++@@@@@ooXXXoXXo++XXXX++",
" .XXXXXo+++XXXooOOOOOOOOOOOOOOOOOOOOOOOOOO+@@@@@ooXXXo+++XXXXX++",
" .XXXXXXXXXXXXXX.             .               ..XXXXXXXXXXXXXX++",
" .XXXXXXXXXXXXXXX..............................XXXXXXXXXXXXXXXO+",
" .XXXXXXXXXXXXXXXXXXXXXXXXXXXXXXXXXXXXXXXXXXXXXXXXXXXXXXXXXXXXO+",
" .XXXXXXXXXXXXXXXXXXXXXXXXXXXXXXXXXXXXXXXXXXXXXXXXXXXXXXXXXXXXO+",
" o+++++++OoOOOOOOOOOO++++O+OOO+++++OOOOOOOOOOOOOOOOOOO+++++OOOO+",
".+@+@@++@@@@++++++++++@@@@@@++@@@@++OOOO++OO+++O+++@@@++@@++++++"
};
