/* XPM */
static char *metN[] = {
/* columns rows colors chars-per-pixel */
"64 64 8 1 ",
"  c #6EC59F",
". c #59B292",
"X c #3D7864",
"o c #366451",
"O c #51A48B",
"+ c #53A178",
"@ c #4C9484",
"# c #5EAB81",
/* pixels */
"      ..          ..    ......Xo          ..  ..      ..    ..oo",
" ..OOOO.......OOOO....OOOO....Xo ..OO.....OOOO....OOOOO...OO..oo",
" .OOOOOOOO+++@@@+++++++++@@+++Xo .OO+++OOO++@@@@+@@+++@+++@+++Xo",
" .OOOOOO+OO+@@@@@+++++@+@@++++Xo .OOO+OO++@@@@@@@++++@@@@@++++Xo",
" .OOOO+++++@+++@++@@@@@@++@@++oo OO@@+++@@@+++@@++@@@+++@@@@@+oo",
" OOOO+++O+++OO++@@@@@@@++@@+++oo O++@@+++@@@+++@@@++@@@++@@@++oo",
" OOO+OO##O+OO+@+@@++@++@@@@@@+Xo .@@+++@@@+++@@++OO@@@++O+++@+oo",
" OOOOO##O+++OOO@@++O++@@@@@@@@Xo .+@@+@@@+++@@++OO++@+OOOO+@@@oo",
" OOOOOOO##OOO++@++OO+@+++@@@+@oo .+++OO+@@@++@@@+++@OOO++OOOOOoo",
" OOOO+OOO###OO++@+O#O+O+@@@+++oo .O+OO+++@@@@@@@@#OOO##O++O#OOoo",
" .OOOO++OOO##OOO@O##OO+@@+@@@+oo .OO++O+@@O++@@+OO##+O#######OXo",
" .OO+++OOO#OOOO#OO###O+++@+@@@oo OOO++++OO++@@@@+##OO+OO###OO+Xo",
" .OOO++++OOO+O##O###O++@@++++@oo OO+O++OOOO++@@+@+OOOOO##OOO++oo",
" .+OOO++OO++OOO####OO+@@@@++@+oo O+++OOO++O+@@+++++O######OOO+oo",
" .O+OOOO+@OOOO####OO+@O++@@O++oo .++++OO+@+@@@++O++###OOOO##O+oo",
" OO++OO+@++OO###OOO#OO++@@@+O+oo .++++O+@@+@+@OO++OOO###O##O+Ooo",
".OOO++O@@+OO#OOOO+O#O++O++@@OOoo .O++O++@+@@O++OOO++OO###O+++@oo",
".OO+OOO+@@++OOO++O##OO++OO+@+Ooo .OO+O+++++@OO+O##O++OOOO#O+@+oo",
" O+OOO+@@@@OO++OO####OO##O@+++Xo..+O+++OO+++OOOOOO##O++OOO+@@+oo",
" .++O++O++@@@@++OO########OO+OXo..O+++@+OO++OOOOO##OOO+++++@+@oo",
"..+O++OOO++@@+@@+###OO##OO@+O+Xo .O++@++++OO++O+O+OO++OO@+@@++oo",
" .OO++O+++@@+@@+##OOOOO##OO@OOXo O+++@++OOO@@+OO++++O++OO@@+++oo",
"..OO+O+++@@+++O##O##OO#OO++@OOXo.O@+@@+O+@@++++++OO+++++++@+@+Xo",
".OO+OO@++@+@O+#OOOO##OOO++@@+OXo..+@@+++@@++O++OOO+++@+++++++@Xo",
".O++OO+@@@+OOOOO+OOOOO++O+@@@+oo..+@+++@@@@++OO+OOOOO+@++++@+@Xo",
".O@++OO+@@++OO++OOO+O@OO++@@++oo..@@+@@+@+@+OO++OOO++O@@++@@+@Xo",
"..@@@+O++@@@+++@@++@@OO++@@+++oo..@O+++++@@@+++@++OO+++@@@@@@@Xo",
"..@@+O++@@@+++@@++O+@@++@@@@+Ooo.O++OO+@@@@+++@@+OO@@@++@++@@@Xo",
"..@++@@@@@@@@@+++OOO++@@@+@+OOoo.OOOO@@++@@@@@@+++@@++@@@@+++@oo",
"..@@@+@@@@@@@++OO+OOO++@@@+O+Ooo..OO++@@++@@@+++++++@@@@@+++@@oo",
"XXXXooooooooXXooooooXXooXXooXXXoooXXooooXXooooooooooXXooXXXXoooo",
"Xooooooooooooooooooooooooooooooooooooooooooooooooooooooooooooooo",
"        ....        ....  ....Xo                ....    ..  ..Xo",
" .OO....OOOO......OOOOO.......Xo ....OOOOOOOOO.O.OO..OOOOOO...Xo",
" O+@@+++++++@++@+++OO+@@@@@@@@Xo .++++@@@@@++@@+++@@@++++++@++oo",
" O++@@++++@@++@@@@++OO++@@@@@@Xo O++@@@@@+++@@++@@+++@@@++@@@+oo",
" .++++@@+++@@@+++@@@++OOO+@@@@Xo O+@@+++++@+++@@@+@O++@@@@++@+Xo",
" .+++@@@@@@@@+++@@@++O+O++@+@@Xo O@@@@++O++@+++@@@##OO+@@+O++@Xo",
" .+++++@@@++++@@++++#OO++@++@@Xo .@@+++O+++@@@+O###OO+@@O##O++Xo",
" O++++++++@++OO@@++OO#O++@@++@Xo O+@++OO++@@@@@OO#O+@@++##OO++Xo",
" O+++O@++@@@OO##OOO#O#+O++@++@oo O++@++OO++@++@@+O##OO@+O#O++Ooo",
" OOO@@@@@++@@+O##OO##++OO+++@@oo O@+++OOOO+++++@@@O##OO++O#O++oo",
" O@@O@@@+O++O++O##OO#+O+O+@+@+Xo .@+O+O+O++O++@@@++OO###OOO++Ooo",
" .O@@+@@++O+OO+O#O##OO+O++@@+@Xo .+@OO++O+O+@@+O++O+OO####O+OOoo",
" .OO+O@+@+OO#OOOO#####OO+O+@++Xo..+O+O+++OO@@+##OOOO++OO###OO#Xo",
" .O+OO++@@+O##O##OOO##OOOOO@@+Xo..+++++O+OOO++O##OO++OO##O#O#OXo",
" .+OOO+O+@++OO#OOOO#OOOOO##O@+oo .++++OOO+O#OO++OO+OO##OOO###Ooo",
" .++OOOO++@+O####OOOO#OO##O++@oo .+@+++O+++O#O+O#OOO##OO+OO#OOoo",
"..O+OOO++++OOO##OOOOOO##O++O++oo..@+++O+@@+O###OO####OOO++O+@@Xo",
".OOO+O++++##++O##+OO#OO#OOO+++oo..@@@@+++@@+O#OOOO####OO+@@@++Xo",
".OOOO++++#+##++O+OO##O+O#OOO++oo O+@@++@@+O++OOO###OOOO+@@@+++Xo",
".O+O+++O++++##+++++O##O+O++O++oo OO@++@@++OO++OOO###OOOOO+@@++Xo",
" .++O++OO+++++##++OOO@@+++OOO+oo OOO+@+O+OO+OOOO++#OO++OO++@+@oo",
" .+OO+O+O+@@+++###++O+@@++O+O+oo O+O+@+O+++OO+++++OO+@++OO+@@+oo",
"..+O+OO++O++@@++###@++@+@+++OOoo O++@@@+O+OO+@+++O+OO+@@++O+@@oo",
".O+++O++O+@@@++##@@+++++@+++OOoo O@+@@++++++++@@OO++O++@@@++@@oo",
".O++@++OOO+@@@@+++@@@++@+++OO+Xo.O+@@++@@+++@@@+OOO++O@@@++@@@oo",
"..++@@+++OO++@@@++++@@@@@@OO++Xo..@@++++@@+++@++O+O@++++@@@@@@oo",
"..+@@@++@@+O@@++++@++@@@@++O++Xo.O+@@+@@@@@@@++O++@@@@+++@@+@@oo",
"..+@@++++@@++++@@@@@@@@@++++O+Xo..@++@@@@++@@@++@@+@@++@@@@++@oo",
"..@+@@@@++@@+@@@++@@@+++@@++OOoo..@@@@@++@++@@@++@@++@@@+@++@+Xo",
"..++++@+@@++++@++@@++@+++@@++Ooo..@@@@++@@@@+++@@+++@@@+++@@++Xo",
"ooooXXXXXXXXooXXooooooooXXXXooooooooXXXXXXXXooXXooooooooXXXXXXXo",
"oooooooooooooooooooooooooooooooooooooooooooooooooooooooooooooooo"
};
