/* XPM */
static char *metS[] = {
/* columns rows colors chars-per-pixel */
"64 64 9 1 ",
"  c #6EC59F",
". c #59B292",
"X c #4FAB90",
"o c #53A178",
"O c #3E816B",
"+ c #4C9484",
"@ c #396E59",
"# c #3B6655",
"$ c None",
/* pixels */
"        .   ......      ...    .....            .......XXXXXXXXo",
" .........XXX..........XXXXX...XX...................XXXXXXXXXooO",
" ...$$...$$$$$$$$Xoo$$o++$$$$$$$$ooX$$XXX$$$$$$$$XXX$$oo+$$$$$O@",
" ..$$$$...$$$$$$XXX$$$$++o$$$$$$++o$$$$.XX$$$$$$.Xo$$$$++o$$$$O@",
" .$$$$$$...$$$$.XX$$$$$$++o$$$$ooo$$$$$$X..$$$$.Xo$$$$$$ooo$$$O@",
" .$$$$$$$X..$$X..$$$$$$$$Xoo$$++o$$$$$$$$...$$XXo$$$$$$$$o++$$O@",
" .$$$$$$$$o.....$$$$$$$$$$o+++oo$$$$$$$$$$..XX..$$$$$$$$$$+ooo@@",
" .$$$$$$$$oo....$$$$$$$$$$++oooX$$$$$$$$$$..XXX.$$$$$$$$$$++oo@@",
" .$$$$$$$oo.$$...$$$$$$$$++o$$..X$$$$$$$$..X$$.Xo$$$$$$$$++o$$@@",
" .$$$$$$oo.$$$$...$$$$$$o++$$$$...$$$$$$...$$$$ooo$$$$$$++o$$$@@",
" ..$$$$ooo$$$$$$...$$$$X++$$$$$$..X$$$$...$$$$$$Xoo$$$$+oo$$$$@@",
" ..X$$ooo$$$$$$$$...$$XXo$$$$$$$$.XX$$...$$$$$$$$ooo$$ooo$$$$$@@",
" .XXXooo$$$$$$$$$$....XX$$$$$$$$$$X...X.$$$$$$$$$$XXoooo$$$$$$@#",
" .XXXooo$$$$$$$$$$....XX$$$$$$$$$$...X..$$$$$$$$$$Xooooo$$$$$$@#",
"..XX$$ooo$$$$$$$$XX.$$XXX$$$$$$$$...$$.XX$$$$$$$$ooo$$ooo$$$$$@#",
".XX$$$$XXX$$$$$$..X$$$$XXX$$$$$$...$$$$X.X$$$$$$XXo$$$$o++$$$$@#",
".X$$$$$$XXX$$$$XX.$$$$$$XXX$$$$...$$$$$$XXX$$$$XXo$$$$$$ooo$$$##",
".X$$$$$$$XXX$$oXX$$$$$$$$X..$$...$$$$$$$$XXX$$Xoo$$$$$$$$ooo$$##",
"..$$$$$$$$XXXooX$$$$$$$$$$......$$$$$$$$$$...Xoo$$$$$$$$$$oooo##",
"..$$$$$$$$XXXXoX$$$$$$$$$$......$$$$$$$$$$X.XoXX$$$$$$$$$$oooo##",
"..$$$$$$$.X.$$oXX$$$$$$$$X..$$...$$$$$$$$..X$$Xoo$$$$$$$$Xoo$$@#",
"..$$$$$$...$$$$oX.$$$$$$.XX$$$$...$$$$$$...$$$$XXX$$$$$$Xoo$$$@#",
"...$$$$...$$$$$$X..$$$$...$$$$$$...$$$$...$$$$$$ooo$$$$ooo$$$$@#",
"....$$...$$$$$$$$X..$$...$$$$$$$$.XX$$..X$$$$$$$$ooo$$ooX$$$$$O#",
" ....X..$$$$$$$$$$......$$$$$$$$$$......$$$$$$$$$$oXooXX$$$$$$O@",
" ....X..$$$$$$$$$$......$$$$$$$$$$...XX.$$$$$$$$$$XXXXXo$$$$$$O@",
" ...$$...$$$$$$$$...$$...$$$$$$$$...$$..X$$$$$$$$XX.$$ooo$$$$$@@",
" ..$$$$.XX$$$$$$...$$$$...$$$$$$...$$$$XXX$$$$$$XX.$$$$ooo$$$$@@",
" .$$$$$$X..$$$$...$$$$$$...$$$$...$$$$$$...$$$$XX.$$$$$$++o$$$@@",
" .$$$$$$$...$$...$$$$$$$$...$$...$$$$$$$$.XX$$X..$$$$$$$$ooo$$@#",
" .$$$$$$$$......$$$$$$$$$$......$$$$$$$$$$XX....$$$$$$$$$$Xoo+O#",
" .$$$$$$$$......$$$$$$$$$$......$$$$$$$$$$......$$$$$$$$$$ooo+@#",
" X$$$$$$$...$$...$$$$$$$$...$$...$$$$$$$$...$$..X$$$$$$$$ooX$$@#",
" X$$$$$$...$$$$...$$$$$$...$$$$...$$$$$$...$$$$.XX$$$$$$oo.$$$@#",
" X.$$$$...$$$$$$X..$$$$...$$$$$$...$$$$...$$$$$$XoX$$$$ooX$$$$@#",
" XXX$$...$$$$$$$$X..$$...$$$$$$$$...$$...$$$$$$$$oX.$$XoX$$$$$@#",
" XXX....$$$$$$$$$$.XX...$$$$$$$$$$......$$$$$$$$$$X...Xo$$$$$$@@",
" XX.....$$$$$$$$$$.XX...$$$$$$$$$$......$$$$$$$$$$X.X.oX$$$$$$@@",
" ...$$...$$$$$$$$.XX$$...$$$$$$$$...$$...$$$$$$$$X.X$$XX.$$$$$@@",
" ..$$$$..X$$$$$$..X$$$$...$$$$$$...$$$$...$$$$$$XX.$$$$..X$$$$@@",
" .$$$$$$..X$$$$...$$$$$$.X.$$$$...$$$$$$...$$$$X.X$$$$$$XXo$$$@@",
" .$$$$$$$.XX$$...$$$$$$$$X..$$...$$$$$$$$..X$$XX.$$$$$$$$Xoo$$O@",
" .$$$$$$$$XX....$$$$$$$$$$......$$$$$$$$$$..XXX.$$$$$$$$$$ooXoO@",
" .$$$$$$$$.X..X.$$$$$$$$$$X.....$$$$$$$$$$.XXX..$$$$$$$$$$oXXoO@",
" .$$$$$$$..X$$XX.$$$$$$$$.X.$$...$$$$$$$$.XX$$.XX$$$$$$$$+XX$$O@",
" X$$$$$$X..$$$$X..$$$$$$...$$$$..X$$$$$$...$$$$.XX$$$$$$o+o$$$O@",
" XX$$$$XX.$$$$$$X..$$$$...$$$$$$X..$$$$X..$$$$$$X.X$$$$o++$$$$O@",
" Xoo$$XXX$$$$$$$$.XX$$o..$$$$$$$$...$$XX.$$$$$$$$Xoo$$Xo+$$$$$@@",
" XooXXXX$$$$$$$$$$..XXoX$$$$$$$$$$..XoX.$$$$$$$$$$ooXXoo$$$$$$@#",
" XoXoXXX$$$$$$$$$$.XXooX$$$$$$$$$$..X+X.$$$$$$$$$$ooooo+$$$$$$@#",
" .XX$$oXX$$$$$$$$..X$$ooX$$$$$$$$..X$$X.X$$$$$$$$ooX$$++o$$$$$@#",
" .X$$$$ooX$$$$$$X.X$$$$oXX$$$$$$...$$$$XX.$$$$$$ooX$$$$ooo$$$$O#",
" X$$$$$$XXo$$$$X..$$$$$$XXo$$$$.X.$$$$$$o..$$$$oXX$$$$$$+oo$$$@#",
" X$$$$$$$XXo$$XX.$$$$$$$$oo.$$..X$$$$$$$$X..$$oXX$$$$$$$$+X.$$@#",
" X$$$$$$$$XooXXX$$$$$$$$$$X.XX..$$$$$$$$$$..XXXX$$$$$$$$$$X.XX@#",
" .$$$$$$$$XooXX.$$$$$$$$$$XXXX.X$$$$$$$$$$X.XXXX$$$$$$$$$$.XXX@#",
" .$$$$$$$XXo$$XXX$$$$$$$$oXX$$.XX$$$$$$$$XX.$$XXX$$$$$$$$..X$$@@",
" X$$$$$$XXo$$$$oXX$$$$$$ooX$$$$XXo$$$$$$oXX$$$$.XX$$$$$$..X$$$O@",
" Xo$$$$Xoo$$$$$$XX+$$$$+oo$$$$$$X++$$$$+oX$$$$$$..X$$$$.XX$$$$O@",
" Xoo$$oo+$$$$$$$$ooo$$+++$$$$$$$$+++$$o++$$$$$$$$...$$XXX$$$$$O@",
"..oXXooX$$$$$$$$$$oo++++$$$$$$$$$$+++ooo$$$$$$$$$$...XXX$$$$$$O#",
" .XXXXXo$$$$$$$$$$++++++$$$$$$$$$$o+++oo$$$$$$$$$$XXX..X$$$$$$@#",
".oOO@OOO@OO@@@###@@@@@@@OOO@@@#@@@@######@@@@OOOOO@O@@@#@@@OO@@#",
"oO@@@@@@@@@@@@##########@@@@################@@@@@@@@####@@@@####"
};
