/* XPM */
static char *metW[] = {
/* columns rows colors chars-per-pixel */
"64 64 8 1 ",
"  c #6EC59F",
". c #59B292",
"X c #4FAB90",
"o c #53A178",
"O c #3E816B",
"+ c #4C9484",
"@ c #396E59",
"# c #3B6655",
/* pixels */
"        .   ......      ...    .....            .......XXXXXXXXo",
" .........XXX..........XXXXX...XX...................XXXXXXXXXooO",
" ..........XXXXXXXooooo++++++++++ooXXoXXXXXX...XXXXXXooo+++oooO@",
" .............XXXXXXoo+++oo+++++++oooX..XX....XX.Xooooo++oooo+O@",
" ............X..XXXXXooo++oo+++oooXX...XX....XX.XooXoo+oooo+++O@",
" .......XX....X...XXXXoooXoo++++oX.XX.XX.....XXXoXXooooooo+++oO@",
" ....XXX  +......X.XXXooXoo+++oo..XXXXX..X..XX..X.XXoX  +++ooo@@",
" ...XXX  Xo+.....XX.XXXooo++oooXX...XX..XX..XXX..XooX  Xo+++oo@@",
" ...XX XoooOX.....X.XXXoo++ooo..XX.XX..XX..XX..XoooX XoooO+ooo@@",
" ....XXo+o+OXX.......XXXo++XXoX....XX.X....X..XoooXXXo+o+Oooo+@@",
" ..X.X+oo+OOXXX......XXX++oXoXX...XX......XXXXXXXooo+oo+OOo++o@@",
" ..XXXo+OOOoXXX......XXXo+oXXX....XX......XXXXXoooooo+OOOo++oo@@",
" .XXXooooooooX........XXX+XX.X...XX...X..XXXXoooooXXooooooooo+@#",
" .XXXooooooooX.X.X....XXXoXX....XX...X..XXXXooooXXXoooooooo+++@#",
"..XXoooooooooXXX.XX...XXXoX...XX.......XXXXooXXXXoooooooo++++o@#",
".XXXoooXXXXoooXX..X....XXXX...........XX.XoXXXXXXXoooooo+++ooo@#",
".XXoooX.XXXXooXXX......XXXX..........X..XXXXXX.XXooXXoo+oooooo##",
".XXoooX..XXXXooXX......XXX........XX...XXXXX..XoooXXoooooooooo##",
"..XoXoXX.XXXXooX.X......XX.......XX...XXXX...XooXXoooXoooooooo##",
"...oXXXX..XXXXoX.XX.....XX..........XXX.XXX.XoXXooooXooooooooo##",
"...XoX.X..X.XXoXX.X...X..X...........XXX...XXXXoooXooooooXoooo@#",
"..X.o..X......XoX......X.XX.........XXX.....XXXXXXoooooXXooooo@#",
"....X.......X..XX.........X........XXX....XX..XXoooooXXoooooo+@#",
"....XX.......X.XXX.........X......XX....XXX..XXoooooXXooXoooo+O#",
" ....X..........XX..............XX.......XXXXooXoooXooXXoooo++O@",
" ....X....X.....X....................XX...XXXXooooXXXXXooooo++O@",
" ........X..........................XX..XXXXooooXXX.Xoooooo++o@@",
" .......XX.............................XXXXooXXXXX..XXoooo++o+@@",
" .......X.............................X....XXX.XX..XXooo++oo++@@",
" ...X..XX.................................XXXXX...XXoooooooo+o@#",
" ...X..XX................................XXX......XooooooXXoo+O#",
" ..X....X...............................XX.......XXoooXXXoooo+@#",
" X.X........................X...................XXooXXX.oooXoo@#",
" X.XX.......................X...................XXoXXX.Xoo.Xoo@#",
" X.XX...........X....X.......X..................XoXX.X.ooX..Xo@#",
" XXX............XX..X........XX................XooX..XXoXX.XXo@#",
" XXX....X........X.XX........XX................XoXX...XoX.XXoo@@",
" XX......X.......X.XX.........XX...............XXXX.X.oX.XXXoX@@",
" ........XX.......XX............X.............XoXX.XXXXX.XXooX@@",
" ..X.....XX.......XX..........................oXXX.XXXX..XXoXo@@",
" ..XX.....X........X.....X.............X.....XXX.XXXXXX.XXoooo@@",
" ...X..X..XX.......XX....X............XX...XXXXX..XXXX..XXooooO@",
" .X.XX.X..XX........X....X............X.....XXX...XXXX.XXoooXoO@",
" .XXXX.....X..X......X...XX..........XX....XXX...XXXX.XXXooXXoO@",
" .XXXX..X..XX.XX.....XX...X..........oX...XX...XXXXXXXXXo+XXooO@",
" XXX.XX.X..XXX.X....XXX....X.....X...o.X........XXXoXXooo+oXooO@",
" XXoX.XXX..XXX..X...X.X.........X....oXX......XXX.Xooooo++ooooO@",
" XooXXXXXX..XXX...XX..o.......XXX...XoXX....XXX..XoooXXo++oooX@@",
" XooXXXXXX..XXXXX...XXoX....XXXX....XoX....XXX..XXooXXoo+oooXo@#",
" XoXoXXXXXX..XXXXX.XXooXXX.XoXXX....X+X......XXXXoooooo++oooXX@#",
" .XXoooXXXXXXXXXX..XXoooXXXoXXX....Xo+X.X..X..XXoooXXo++oooo.X@#",
" .XooooooXXXX.XXX.XXX+ooXXooXXX....X+o.XX..XXXXoooXX++oooooX..O#",
" XoooooX  +XXX.X..XXo+ooXXoX.XX.X..o+oXXo...XXXoXXoooX  +oo...@#",
" XoXooX  Xo+XXXX..XXo++oXoo..X..X.Xo+oXXoX..XXoXXoooX  Xo+X.X.@#",
" XXXoo XoooOoXXX.XXX+++oooX.XX..XXX++oXo+o..XXXXoooo XoooOX.XX@#",
" .XoooXo+o+OoXX.XXXo+o+oooXXXX.XXXo++XX++oX.XXXXXXooXo+o+O.XXX@#",
" .oo+o+oo+OOXoXXXXX++o+oooXXX..XXXo+oXo+oXX..XXXXXXX+oo+OOXXXX@@",
" Xo+++o+OOOoXXooXXo+oo++ooXXX.XXXo++oooooXXX.X..XXXoo+OOOXXXXXO@",
" Xooo+++oo+ooooXXX+oo+++oooX..XXX+++oo++oXXXXXXX..XXXoooXXXX..O@",
" XooXXoo++ooooXXooooo++++ooX.XXXo+++ooo++oXXXoXXX...XXXXXXX..XO@",
"..oXXooXooooXXXooooo++++++ooXXXooo+++oooo++oXXooXX...XXXX..ooXO#",
" .XXXXXooooooooooo++++++++++ooXXXoo+++oooo+++ooXXXXXX..XXXXXoo@#",
".oOO@OOO@OO@@@###@@@@@@@OOO@@@#@@@@######@@@@OOOOO@O@@@#@@@OO@@#",
"oO@@@@@@@@@@@@##########@@@@################@@@@@@@@####@@@@####"
};
