/* XPM */
static char *si[] = {
/* columns rows colors chars-per-pixel */
"64 64 13 1 ",
"  c #190D10",
". c #211114",
"X c #291519",
"o c #30181C",
"O c #38181E",
"+ c #3E1E24",
"@ c #480000",
"# c #521810",
"$ c #730408",
"% c #44242A",
"& c #831C20",
"* c #A42429",
"= c #C53439",
/* pixels */
"+++%++%%%%++Oo  %%%%%%%%%%%%++%+%%%+%%%%%+%++O  %%%%%%+%++O++O++",
"ooXooOOooXXooO  %+OOOOOoOOOOOOOoXoOOOOOOOOoXXo  %+OoXXXoOOOOOOOO",
"OXoOOOOOXXooOo  %OOOOoXooOOOOOoXOOOOOOOOOoXoOO  +OOOoXoOOOOOOOOO",
"oOOOooOOoOOOOo  +OOoXXooOOOoOOOOOoOOooOOOOOOOo  +OOooOOOooooOOOO",
"OOoooOOOOOOOoo .%OOOoOOOOOOOooXoOOoooOOOOooooX  %OOOOOooOOoooOOO",
"oOOXoooOOOOOoX..%OOOOOOOOOOOOOoXoooOOOOooooXoX  %OoOooooooooooOo",
"ooooXXooooXooX .+OooOOOoOOOoooooooooOoooXXXoXX .+XoOOOooXXooXooo",
"XooooXXXoooXoX. +OOOoooOOOooooooXooooOooooXXXX .+oOOOoooooXXXXoo",
"oXXoooooXXXoXX  OOooXXoooOOooXXXooooXXooXXoXXX..%OOOOOOOoooXXoXX",
"XXoooXXXooXXXX  +ooXooooXoooooXXXoooooXXXXXXXX .+OOoOOooooooXXXX",
"XXXXXoXXXXXXXX  +OOooXoXXXXoooooXXXXXooXXXXXXX  +OOOooXooXXXoXXX",
"XXXXXXXXXXXXXX  +oOOooXXXXooXXXXXXXXXXXXXXXXXX  +ooooXXXooXXXXXX",
"XXXXXXXXXXXXXX .+OooXXXXXXXXXXXXXXXXXXXXXXXXXX .+OoXooXXXXXXXXXX",
"XXXXXXXXXXXXXX..OooXXXXXXXXXXXXXXXXXXXXXXXXXXX..OoooXXXXXXXXXXXX",
"            ......  .     .               .......      . .      ",
"      .. ...........   ...            .... ....  .    ...       ",
"%%%%%%%%%%%%%+%%++++%++++++++O  +%%%%%++%%+%++OoXO+++%%+%++++O  ",
"%+OOOOoOOOOOOOOOOOOoOOOOOoooOo  %+OooOOOOOOOoooXoOOOOOOOoOOooO  ",
"%OOoXoOOOOOoOOOOoooOOOoooooOOo  %ooOooXooOoooOOOOOOOOOOOOooooo .",
"%OoXoOooOooOooOOOoooooOOoooooX  %OOoXXoOOOOOOOOoooOOOOOoooOooo..",
"%ooOOoOOOOooooooooXXoooooXXXoo  +ooooOOOOOOooXXoOOooOOOOOOoXXo..",
"%OOOOOOOooXXooooooooXoooXXoooo  +OoOooOOOOooXoooooooXoOOooXXoo..",
"+OOOooOooXXoooooXXXoooXoooooXo .+oOOOOOOOOOOoooooooooXXooooooo .",
"%OOOOoXXoooXoXXXXXooXooXXoXXXX  %OOOOoooOooooooX$$$$&&&&oooooX  ",
"+OooooooXooooooXXXXXXXXXoooXXX .%OOOoooooXoooo$$&&&&&**&&$oXXX. ",
"+OOOooOooooo$$$&&&&&XXXXXXXoXX .+oooOOooXooo$$$&&**&**=*&&$$XX .",
"+ooOOOoooo$$&&***&&*&$XXXXXXXX .+OOoooooooX$&&&****===****&&$X  ",
"+OooOOOo$$$&&******&&&$$XXXXXX..+OoooXXooo$$$&&&*=**===****&$$  ",
"+OOoooo$&&***==**=****&&@XXXXX..+oooooXXo$&&&$&*=====*******&$@ ",
"OoooXX$&$***==**====*&&$$@XXXX. OXXoXXXXX$$&**&&**====**=**&$$@ ",
"  .  $&&&*==*===*====**&$$@ ....   .    $&&*=****==*====**&$&$$@",
"..  .$$*&&*==*========**&$@........     &****==****====**&&&&&$@",
"++++$$&***=***======***&&$$@+%%%+++++O .&&*===***====******&$$$@",
"OoXo$&*******========**&&&$@oXXoOOOooO  $&&*===***==***&&$&&&$@@",
"OOoO$&*****==*====****&&$$$@XoOOOoOOoo  +$$$&*==********&&$$$$@o",
"OOOO&&*=**==***====*****&$$@oooOOOoooO  +$$&*******&&**&&&&$$@@O",
"OOooo$&&======**====**&&$$@OOooooooooo .+o$$&&***&**&&&$$$$@@@OO",
"ooooo$&**====*===***&&&$$$@ooOoooooooo  +OO@$&&***&&&&$$$$$$@ooO",
"OooooX#&***=====**&&&$$$$@OOoooooXXooX .+OoO@@@@$$&&&&&&$@@@ooOO",
"oXooXX #&&**==**&&$$$&$$@OOOOoooooXXXX .+OOoo@@$$&&&$&$$@@@@ooOo",
"ooXXXX  #&&&&&&&&&&$$$$@+OooooXXoXooXX .OoooXX@@$@$$&&&$$$@ooooo",
"oooXXX  O#&&&#&&&$$$$@@ +OOooooXXXXXXX..OOoooX#@@$$&&&$$$$@ooooo",
"oXXXXX  +O###$&$$@@$@@  +OooooXoooXXXX. +ooOooo#$$&&&&$&$$@ooXoo",
"ooXXXX  +O##$$&&$$$@@@. OoooXXooXXXXXX  +OOOOOo#$$&$&&&$$$@XXXXX",
"XXXXXX  +OO#$&&&&$$$@X. oXXooXXX&&&&XX  +OOoooo#&$$&&&&$$$@oXXXX",
"XXXXXX .Ooo#&&&&&$$$@X..ooXXXX$&&&**&$ .OOooXXX#&&$&&&&&$$@XXXXX",
"..   ....  #$&&&$$$$@... .. .$&&***&*&@..      #&&$$&&&&$$@     ",
" ...  .....#$&&&&$$$@....   &&=*******&@..  .. #$&$$&&&&$$@... .",
"+%%%%%++%$$#&$&$$$$$@%%%%%%%&**===*****&+%++%+.#$&$&&&$&$$@O++++",
"ooXXXoO$$&&#$$&&$$$$@oXooOO&**=====*****@OoOOO #$$&&&&$$$$@ooOOO",
"OOoXoO$&&&*#$$$&&$$$@XoOOOO*====***&***&@OOoXX #$&&&&$$$$$@OooOO",
"ooooO$&&***#$$$&&$$$@oOOOOO$*====***&&&&@OOOoo #$&&&&$$$$$@oOOOO",
"XoOOO$&****#$$$&$$$$@oXoOOO$&***==*&&&$$@oOOOX.#$$&&$$$$$$@oooOo",
"oOOO$&&&***#$$&$$$$$@XoOOOoX#&*=**&$$$$@oOOooX.#$$$&&$$$$$@oXXoX",
"oooo$&*****#$$$$$$$$#@OOOOOO#&&&&&&&$$$@OoooXX##$$$&$$$$$$@XXXXX",
"XXoo$$&****#$$$$$$$$$@oooooOO#&&&&$$$$@oooooXX###$$$&$$$$#@ooXXX",
"XoXX@$$&&*&#$$$$$$$$$@ooooXooo#&$$@$$@oXoooXXX####$$$$$$$#@XXooX",
"oooX@$&&&&&#$$$$$$$$$@XXXXoooo#&&$$@@@XooXXoXX##$$$$$$$$##@XXXoo",
"ooooX@$$$&&#$$$$$$$$$#@oXXXooXo#&&$$@XXXooXXX#$##$$$$#$###@XXXXX",
"XXXXoo@$&&$@#$$$$$$$$$@oooXXXoX#&&$$@XooXXXXX##$$$$$###$#@@XXXXo",
"XXXXXXX@$&$#@$$$$$$$$#@XXXXXXXX#&$$$@XXXXXXXX##$$##$$####@XXXXXX",
"XXXXXXX@#$&$@#$$$$$$#@#@XXXXXXX#$$$#@XXXXXXX###$##$$$$$#@@XXXXXX",
"   .    @#$#@@$$$####@@@       #$###@   .   #########$@@@       ",
"  ... . @##@@@@@$$##@@@@       #$$#@@ ......########$$#@@       "
};
