/* XPM */
static char *no[] = {
/* columns rows colors chars-per-pixel */
"64 64 17 1 ",
"  c #0B0607",
". c #190D10",
"X c #211114",
"o c #291519",
"O c #30181C",
"+ c #38181E",
"@ c #3E1E24",
"# c #4F3214",
"$ c #44242A",
"% c #5B4012",
"& c #40541E",
"* c #70521D",
"= c #42552D",
"- c #486124",
"; c #507233",
": c #70922D",
"> c #6C8031",
/* pixels */
"@@@$@@$$$$@@+O.%%%;;;;;--;;;;;;#%###$;;>::$@@+..$%%=----@@+@@+@@",
"OOoOOOOOOooOO+.%#%;;;--;;;;;;;-#%%#+;>>:::::oO..%#==-----+++++++",
"+oO+OoO+ooOO+O.%##;;-;;;;;;;;-O%%#+;>::::::::+.%#%=------++++++O",
"O+++oO++O++++O%%##;;;;;;;;;;-+#%##-;>>::::::::.##-&&------OO++++",
"++OOo++O+OO+OO%#%#;;;;;;;;;-OO%###--;>>::::::::#%--&&-----OOO+O+",
"O++ooOO+O+OOOo%#%#;;;;;;;-oo+%###-----;>:::::::#----&&-----OOO+O",
"OOOOooOOOOoOOo##%%;;;;--OoXOO#%##;;;---;>:::::::------&&---OoOOO",
"oOoXooooOOOoOo##%%---OO+OXoO##%*#;>>>;;--;::::::-------&&---ooOO",
"OooXooOOo:::::%##%%----OoXOO%#**;>>>>>;;;-;::::::--------&--oOoo",
"oooX.ooo:::::;;###%-------OO%%*%;>>>>>>>;;;>:::::+----------oooo",
"oooo.Xo::::;;==;###-==-----O%*%#;;>>>:>>>>;;>::::>++--------Oooo",
"oXooX.o:::;;==;>%##%-===----%*%#O;;>>>::>>>;>:::::OOOo------oooo",
"ooXXoX:::;==;>>>%%#%--===---%%##oo;;>>>:::>>;>::::>oOOooXXoooooo",
"oXXXXo::;=;>:::>*%##----==--%%##ooo;;>>>:::>>>>::::OoooooXXXoooo",
".....::;;;::::>>%*%%------==%%#%....;;>>>:::::>:::::...X.X......",
".....::;:::::>> **%*.-------*%%%......;;>>:::::>::::..XXX.......",
"$$$$$:;::::>>>X.****$@------*%%*@$$$$$@@;>>>::::::::@$$@$@@@@+..",
"$@++:::::>>>+OOX.%**++++----**%*$@+OO++++O>>>>::::::O+++O++OO+..",
"$++O:::>>>+O+++O.%**%+OOOO--%*%*$OO+OOoOO+OO>>>>:::>-O+++OOOOO.X",
"$+Oo:>>O+OO+OO++X.%**O++OOOO%***$++OooO+++++###>>>>>--+OOO+OOOXX",
"$OO++O++++OOO:>>>>>>*%OOOooo*%**@------O+O+O%###------O+++OooOXX",
"$+++++++OOoo:>>>>>>>>>OOooOO*%**--------O+OO%#%#------++OOooOOXX",
"@+++OO+OOoo:>:::>>>>;;-OOOOO****===------O++%%%#-------OOOOOOO.X",
"$++++OooOO:::::::>>;;--;oOoo****-===------O+%%%#-------OOOOOOo..",
"@+OOOOOOo::::::::>;--;--OOOo****----==-----O%%##o-------OOOoooX.",
"@+++OO+OO:::::::>;--;;;-oooO****-----&&&---O%%##X.------oOOOoo.X",
"@OO+++OO:::::::>--;>>>;;ooXo**%*&-------&&--#%##oo.oXoooooOoOo..",
"@+OO+++O::::::;--;>>>>>;XXoX**%*@&&-------&-#%##oX.XXXoooooooo..",
"@++OOOO::::::--;>>>>>>>;oXXX*%**@O&&--------##>::::..XXoooooooX.",
"+OOOooo:::::-;;>>>>>>>>;XXXX*%**+ooO&&------#>>>::::..ooooooooX.",
"..X...:::::;;;>>:::>>>>>....%%*%...X..&&----;;;>>::::X...XX...XX",
"XX..XX:::>;;>:::::::>>>#..XX%%%%XXX.....&---;;;;;>:::XX.X.XX..XX",
"@@@@@:::;;>>::::::::>>%#oOo;=;;;>+++++.X$$&&;;>>;;>:::XX@@@@@@@@",
"+OoO+::;;>:::::::::>>%#.OO;;=;;>>>+OO+..$@+O;>>>>;;:::.X@+++++++",
"++O+O:>>::::::::::>>%##XO+;;=;;>>>>+OO..@+Oo+>>>>>;;:::.@++OoOOO",
"++++:>::::::::::>>%%%#XXO;;;==;>:>>OO+..@+++O;>>>>>;>::X@+OoOOO+",
"++OO::::::::::>>OO%%#%XXo;>;;=>>::>>OO.X@OOO%%;>>>>>;>::+OO++O++",
"OOOO::::::::>>OoO%%##OX.X>>;;=>::::>OO..@++O%*%;;>>>>>::++++OOO+",
"+OOO:::::>>>o+oOo%%#%o.X;>>>;;>::::>Oo.X@+O%**%%oo;>>>>:+++OOO++",
"OoOO:>>>>oo.XXooo%%#oo..;>>>;;::::::oo.X@++**%%%oooo>>>>+OO+OO+O",
"OOoooo..o+Oo.XXo%#%%oo. >>:>;;::::::oo.X+O%*%%----oooo..@+OOOOOO",
"OOOooo..+O+OOo.X%#%#oo..>>::>;::::::ooXX++**%-------oo..@++OOOOO",
"Oooooo..+oooOO..%###oo..O>::>>::::::ooX.@***&&-------o.X@OOOOoOO",
"OOoooo..OOoOoOO.####ooX.+>:::>>::::ooo..@**%-&&&-----oXX@+Oooooo",
"oooooo..oOOoOo;;=;;;OoX.Oo>:::>::::ooo..@**%--&&&&----X.+OOOoooo",
"oooooo.XooOOo;;;;=;;;oXXOOo>::::::oooo.X**%%X----&&---.XOOoooooo",
"XX...XXXX...;;>>;=>>;;XX.XX.>::::>...XX;;;=;;.----&&---XX.......",
".XXX..XXXXXX;>>>>=>>>;XXX...=>::>==XXX;;;=;;;;.-----&--X XXXXX.X",
"@$$$OX.XO+Oo;>::>=>>:>$$$$$$==>>===$$;;;;=;;>;;.--------.$@+@@@@",
"OOoooOXOO+OO>:::>=>::>oOO+++========o;;;;=;>>;;.o-------X$+OO+++",
"++OoO+XX+OoOO:::>;>::>O+++++-=======O;>;==;>>>;;O+------$O++OO++",
"OOOO+++XOOOoO>::>;:::O+++++O-=======+;>>=;>:>>;;oOoo----OOOO++++",
"oO++++OOX+OO+>:::;::>OoO++++o=======O>>>=;>::>;>ooX..XoO++OOOO+O",
"O++++O++X.++O:>::;::>oO+++OoO-=====-+>:>=;:::>>.. .Xoo++OOOOooOo",
"OOOO++O+OX..XO>::>:>:O++++++++-====-++:>=>::::>  ooO+++OOOOooooo",
"ooOOOO+OOOooX.:::>:>++OOOOO++O-===--OO::;>::::>.o+OOOOOOOoOOOooo",
"oOooOOOOoOOooO.:::::OOOOOOoOOO+===--OO::;::::>.X@O+++OOoOOoooOOo",
"OOOooOoooooOooX::::OOOooooOOOOO-=---oOo:>::::>.X@oOO++OOoOOoooOO",
"OOOOooOOOooooo.X::+++OOOoooOOoOO----ooo:>::::o.X@OO++Ooooooooooo",
"ooooOOOOoOoooo..@+++OoOOOOoooOooo--oooo::>::>XXX@+++OOOooooooooO",
"oooooooooooooo.X++OOoooooooooooooooooooo:>::..X.@++O++OOOooooooo",
"oooooooooooooo..+Ooooooooooooooooooooooo:::>oX.X+OOOO++Ooooooooo",
"...X....................................X::.....................",
"..XXX.X...........................X...XXXXXX..XX................"
};
