/* XPM */
static char *wall_south[] = {
/* columns rows colors chars-per-pixel */
"64 64 7 1 ",
"  c #3E1E24",
". c #44242A",
"X c #38181E",
"o c #30181C",
"O c #190D10",
"+ c #291519",
"@ c #211114",
/* pixels */
"   .  ....  XoOO............  . ... ..... .  XOO...... .  X  X  ",
"oo+ooXXoo++ooXOO. XXXXXoXXXXXXXo+oXXXXXXXXo++oOO. Xo+++oXXXXXXXX",
"X+oXXXXX++ooXoOO.XXXXo+ooXXXXXo+XXXXXXXXXo+oXXOO XXXo+oXXXXXXXXX",
"oXXXooXXoXXXXoOO XXo++ooXXXoXXXXXoXXooXXXXXXXoOO XXooXXXooooXXXX",
"XXoooXXXXXXXooO@.XXXoXXXXXXXoo+oXXoooXXXXoooo+OO.XXXXXooXXoooXXX",
"oXX+oooXXXXXo+@@.XXXXXXXXXXXXXo+oooXXXXoooo+o+OO.XoXooooooooooXo",
"oooo++oooo+oo+O@ XooXXXoXXXoooooooooXooo+++o++O@ +oXXXoo++oo+ooo",
"+oooo+++ooo+o+@O XXXoooXXXoooooo+ooooXoooo++++O@ oXXXooooo++++oo",
"o++ooooo+++o++OOXXoo++oooXXoo+++oooo++oo++o+++@@.XXXXXXXooo++o++",
"++ooo+++oo++++OO oo+oooo+ooooo+++ooooo++++++++O@ XXoXXoooooo++++",
"+++++o++++++++OO XXoo+o++++ooooo+++++oo+++++++OO XXXoo+oo+++o+++",
"++++++++++++++OO oXXoo++++oo++++++++++++++++++OO oooo+++oo++++++",
"++++++++++++++O@ Xoo++++++++++++++++++++++++++O@ Xo+oo++++++++++",
"++++++++++++++@@Xoo+++++++++++++++++++++++++++@@Xooo++++++++++++",
"OOOOOOOOOOOO@@@@@@OO@OOOOO@OOOOOOOOOOOOOOO@@@@@@@OOOOOO@O@OOOOOO",
"OOOOOO@@O@@@@@@@@@@@OOO@@@OOOOOOOOOOOO@@@@O@@@@OO@OOOO@@@OOOOOOO",
"............. ..    .        XOO .....  .. .  Xo+X   .. .    XOO",
". XXXXoXXXXXXXXXXXXoXXXXXoooXoOO. XooXXXXXXXooo+oXXXXXXXoXXooXOO",
".XXo+oXXXXXoXXXXoooXXXoooooXXoOO.ooXoo+ooXoooXXXXXXXXXXXXoooooO@",
".Xo+oXooXooXooXXXoooooXXooooo+OO.XXo++oXXXXXXXXoooXXXXXoooXooo@@",
".ooXXoXXXXoooooooo++ooooo+++ooOO ooooXXXXXXoo++oXXooXXXXXXo++o@@",
".XXXXXXXoo++oooooooo+ooo++ooooOO XoXooXXXXoo+ooooooo+oXXoo++oo@@",
" XXXooXoo++ooooo+++ooo+ooooo+oO@ oXXXXXXXXXXooooooooo++oooooooO@",
".XXXXo++ooo+o+++++oo+oo++o++++OO.XXXXoooXoooooo+ooo+++ooooooo+OO",
" Xoooooo+oooooo+++++++++ooo+++O@.XXXooooo+oooooo++oo++++ooo+++@O",
" XXXooXooooooo+++++++++++++o++O@ oooXXoo+ooooo+++++++++o+o++++O@",
" ooXXXoooo++++oo++++++++++++++O@ XXooooooo+++ooo++++++++++++++OO",
" XooXXXoooo++++oo+++++++++++++@@ Xooo++oooo+++++o+++++++++++++OO",
" XXoooo+++++++++++++++++++++++@@ ooooo++o+++++++++++++++++++++@O",
"Xooo++++++++++++++++++++++++++@OX++o++++++++++++++++++++++++++@O",
"OO@OOOOOOOOOOOOOOOOO@O@OOOOO@@@@OOO@OOOOOOOOOOOOO@@@@@OOO@@OOO@@",
"@@OO@@OOOOOOOOOOOOOOO@@@OO@@@@@@@@@OOOOO@O@@OO@@@@@@@@@O@O@@OO@@",
"      @O........ .   XO@.... ...     XO@..  XX      Xo@@        ",
"Xo+oXX@O. ++XoXo+ooXXX@O. XXo++oXXXooXOO. XooXXooXXoooO@ XXXXXXX",
"XXoXoX@@ Xo++oXXo+XXoX@@.Xoo+oXXXoXXooOO Xo+XXoXXoXXooOO XXo+ooo",
"XXXXXo@@ oXoXXooXooXXo@@.XXooooXXXoooXOO XXXooooXXooooO@ Xo+oooX",
"XXooooO@ XXXooooooXooo@@ XXXXoooooooooO@ ooooooooooo++O@XooXXoXX",
"oooooo@O XXooooooooo+o@O XoooXooooooooOO XXo++ooo+++o+OOXXXXoooX",
"Xoooo+OOXXoXXXoo+oooo+O@ XXXooooo++oo+O@ XoXoo++++++++OOXXXoooXX",
"o+oo++OO XXXoo++++o+++OO XXXXooooo++++O@ XXoooo+++++++OOXooXooXo",
"oo++++OOXXooooooo+++++OO Xoooo++o+oo++O@Xooo++++++++++OO Xoooooo",
"ooo+++OOXoXoo++o++++++OO XXoooo+++++++@@XXooo++++o++++OO XXooooo",
"o+++++OO Xoooo++o+++++OO Xoooo+ooo++++@O ooXooooo+++++O@ oooo+oo",
"oo++++OO XXXoooooo+o++@OXooo++oo++++++OO XXXXXoo+++o++@@ Xo+++++",
"++++++OO XXoo++++oo+++@Oo++oo+++++++++OO XXoooo++oo+o+@OXooo++++",
"++++++O@Xooo++++++++++@@oo++++++++++++O@XXoo++++++oo++O@oo++++++",
"@@OOO@@@@OOOOOOOOOOO@@@@O@@O@O@@@OOOO@@@@OOOOOOOOO@@O@@@@OOOOOOO",
"O@@@OO@@@@@@OOOO@O@@@@@@@OOOO@@@OO@@@@@@@@OO@@OOOOOO@@@@@@@@@@O@",
" .....  ... XXO@..  ..........    ....   .  . @O .....     X    ",
"oo+++oXooooXXXOO. XXoo+ooXXXXXXXXXXo+oXXXXoXXXOO. XoXXXXXXXooXXX",
"XXo+oXXXXo+oooOO XXo++oXXXXXXXXXXXo+oXXXXXXo++OO.Xo+o+oXooXXooXX",
"ooooXXXoooo+oXOO.XXXooXXXXXooXooXXXXXXooXXXXooO@.o+++oXoooooXXXX",
"+oXXXXooXXooooOO.XXXXo+oXXXX++oXoXXooooXXoXXX+@O.XXXoooXXXooooXo",
"oXXXXoXXXXXXooOO.XXoo+oXXXo+ooXoXXXXXoXXoXXoo+@O.Xo+oXXXoooo++o+",
"ooooXXoXooooooO@ XXXXoXXXXXXXXooooooXXooXooo++OO.o+oXXooooo+++++",
"++ooooXooo++ooO@ XXXXXoooooXXooXXooooooooooo++OO.XXXooooo+ooo+++",
"+o++oooo+oo++oO@.oXooooooo+oooXXooo+ooo+ooo+++O@ oXXXoo+oo+++oo+",
"ooo++o+++++o++@@ Xoooo++++oooooo+++++o+oo++o++O@ +ooXXoo+oo+++oo",
"oooo++ooo+++++O@ XXXXooo+++oo+ooo+++++++oo++++O@ ooXXo++++++++++",
"++++oooo+o++++OO XXXo+oooo+++o+++o++++oo++++++@@ XXXooo++++++++o",
"++++++++++++++O@XXoo++++++++++++++++++++++++++@O XXoXXooo+++++++",
"++++++++++++++OOXo++++++++++++++++++++++++++++O@XooooXXo++++++++",
"OOO@OOOOOOOOOOOOOOOOOOOOOOOOOOOOOOOOOOOO@OOOOOOOOOOOOOOOOOOOOOOO",
"OO@@@O@OOOOOOOOOOOOOOOOOOOOOOOOOOO@OOO@@@@@@OO@@OOOOOOOOOOOOOOOO"
};
