/* XPM */
static char *wall_north[] = {
/* columns rows colors chars-per-pixel */
"64 64 8 1 ",
"  c #3E1E24",
". c #44242A",
"X c #38181E",
"o c #30181C",
"O c #190D10",
"+ c #211114",
"@ c #291519",
"# c #0B0607",
/* pixels */
"   .  ....  XoOO............+ . ... ..... .  XOO...... .  X  X  ",
"oo@oooooo@@ooXOO. oXXXXoXXXX+oXo@oXXoooXXXo@@oOO. Xo@@@oXXXXXXXX",
"X@oXo@oX@@ooXoOO.oXXXo@ooXoX@Xo@XXXooXXoXo@oXXOO XXXo@oXXXXXXXXo",
"oXXX@oXXoXXXXoOO XXo@@ooXoX+@XXXXoXXooXXXXXXXoOO XXooXXXooooXXXX",
"XXoo@XXoXooXooO+.XoXooXooXo@oo@oXXoooXooXoXoo@OO.XXXXXooXXoooXoX",
"oXX@@ooXoXooo@++.XXooXoooo@@XXo@oooXXXX@@oo@o@OO.XoXoo@oooooooXo",
"oooo@@oooo@oo@O+ XooXXXoo@+oooooooooXo@+@@@o@@O+ @oXX@@o@@oo@ooo",
"@o@+@@@@ooo@o@+O XXXoooXo+@ooooo@ooooXo@+o@@@@O+ oXXo@oooo@@@@oo",
"o@@+@@oo@@@o@@OOXXoo@@oo@+ooo@@@oooo@@oo+@o@@+++.Xoo@+@Xooo@@o@@",
"@@@+O@@@o@@@@@OO oo@ooo@+@oooo@@@@oooo@@@+@@+@O+ XXo@++oXooo@@@@",
"@@@@O+@@@@@@@@OO XXoo@@++@@ooooo@ooo@oo@@++++@OO oXXo@+@o@@@o@@@",
"@+@@+O@@@@@+@@OO oXXo+O+@@oo@@@@o@oo@@@@@@++@@OO oooo@@+@o@@@@@@",
"@@++@+O+@++@@@O+ Xoo@@+OO+@@@@@@@@o@@@++@++@+@O+ Xo@oo@@++@@@@@@",
"@++++@OO+@++@@++Xoo@@+++OOO+@@@@@@@o@@@@++++@@++Xooo@@@@@+++@@@@",
"OOOOOOOOOOOO++OOO+OO+OOOOO+OOOOOOOOOOOOOOO+++++++OOOOOO+O+OOOOOO",
"OOOOOO++O++++OO#O+++OOO+++OOOOOOOOOOOO++++O++++OO+OOOO+++OOOOOOO",
".........  . o+O+o  .        XOO .....  .. .  Xo@X   .. .    XOO",
". XXXXoXXXXXXoo+O@ooXXXXXoooXoOO. XooXXXXooXooo@ooXooXXXoXXooXOO",
".XXo@oXXXXXoXXXoOO@XXXoooooXXoOO.ooXoo@ooXoooXoXXXooooXXXoooooO+",
".Xo@oXooXooXooXX+OooooXXooooo@OO.XXo@@oXXXXXXoXoooXoXXXoooXooo++",
".ooXXoXXXXoooooo@O@@ooooo@@@ooOO ooooXXoXoXoo@@oXXo+oXoXXXo@@o++",
".XXXXXXXoo@@oo@@O+@o@ooo@@ooooOO XoXoooooXoo@ooooo+@@oXXoo@@oo++",
" XXXooXoo@@oo@+@OO@ooo@ooooo@oO+ oXoXXXoooXXoXooo@+oo@@oooooooO+",
".XXXXo@@ooo@@+O+O+oo@oo@@o@@@@OO.XXXXoooXooXXoo@o++@@@ooooooo@OO",
" Xoooooo@o@o@@+O+@o@@@@@ooo@@@O+.XXXooooo@ooo@oo@+@o@@@@ooo@@@+O",
" XXXooXoo@@@@+@O@o@@@@@@@@@o@@O+ oooXXoo@ooo@+@@+O+@@@@o@ooo@@O+",
" ooXXXoo@o@@+@@+O@@+@@@@@@+@@@O+ XXooooooo@@@++@@@O@+@@@@@o@o@OO",
" XooXXXoo@++++@+O++@@@@@++@++@++ Xooo@@oooo@@@@+@+O+++@@@@@@@@OO",
" XXoooo@@@@+++++OO++@+@@@+++@+++ ooooo@@o@@@@++@+++OO++@@@@@@@+O",
"Xooo@@@@@++@+++OO#O++@@++++++@+OX@@o@@@@@+@+++++++OOOO@@@@@@@@+O",
"OO+OOOOOOOOOOOOOOO#O+O+OOOOO++++OOO+OOOOOOOOOOOOO+++O+OOO++OOO++",
"++OO++OOOOOO#OOOOOOOO+++OO+++++++++OOOOO+O++#O+++++O+++O+O++OO++",
"      +OXo@#OO.. .   XO+@o@@+O#O+XXXXXO+..  O#O     Xo++        ",
"Xo@oXX+OoXo#O.Xo@ooXXX+OooX@@+OOXXXooXOO. Xo+OXooXXoooO+ XXXXXXX",
"XXoXoX++XooO@oXXo@XXoX++oXoo@oO@XoXXooOO Xo@X+OXXoXXooOO XXo@ooo",
"XXXXXo++Xo@OXXooXooXXo++oXXoo@OXXXoooXOO XXXoo+oXXooooO+ Xo@oooX",
"XXooooO+o@O@ooooooXooo++@oXXXO+XooooooO+ ooooooO@ooo@@O+XooXXoXX",
"oooooo+O+O+@@oo@oooo@o+O+@o+O+o@ooooooOO XXo@@o+@@@@o@OOXXXXoooX",
"Xoooo@OOO@O+@X@o@oooo@O+++OO@@@oo@@oo@O+ XoXoo@+@@@@@@OOXXXoooXX",
"o@oo@@OO@@@O++@@@@o@@@OO#O+@@@oooo@@@@O+ XXooo+@@@@@@@OOXooXooXo",
"oo@@@@OO@Xo@O++@oo@o@@O#O+o@@@@@o@oo@@O+Xooo@++@@@@@@@OO Xoooooo",
"ooo@@@OOXoXoo@O+@oo@@@OOoo@@@o@@@@@@@@++XXoo@+@@@o@@@@OO XXooooo",
"o@@@@@OOX@@@ooOO@@@@@@OOoXoooo@ooo@@@@+O ooXOo@oo@@@@@O+ oooo@oo",
"oo@@@@OOoo@o@ooO+@@o@@+OXooo@@oo@@@@@@OO XX@O+oo@@@o@@++ Xo@@@@@",
"@@@@@@OO@oo@o@@+OO@@o@+Oo@@oo@@@@@@@@@OO X@O+oo@@oo@o@+OXooo@@@@",
"@@@@@@O+@@oo@@+O#O+@@@++oo@@@@@@@@@@@@O+X@OO++@@@@oo@@O+oo@@@@@@",
"++OOO++++OOOOOO#OOOO++++O++O+O+++OOOO++++O##OOOOOO++O++++OOOOOOO",
"O+++OO++++++OOOO+O+++++++OOOO+++OO++++++++OO#+OOOOOO++++#+++++O+",
" ...o+O+oXo@@@O+..  .........@++@ ....   .  . +O@@@oX@O#O. X    ",
"oo@@@o+ooXoo@@OO. XXoo@ooXXXXX@+@XXo@oXXXXoXXXOO@@oXo@@O+.XooXXX",
"XXo@oX++Xo@oooOO XXo@@oXXXXXXXXo+@o@oXXXXXXo@@OOoXo@o@+O.oXXooXX",
"ooooXXX+ooo@oXOO.XXXooXXXXXooXoo@oXXXXooXXXXooO+@o@@++OoooooXXXX",
"@oXXXXoo+XooXXOO.XXXXo@oXXXX@@oXoXoooooXXoXXX@+O@@+OO+@oXXooooXo",
"oXXXXoXX+OXXoXOO.XXoo@oXXXo@ooXoXXXXXoXXoXXoo@+OO#O+@@XXoooo@@o@",
"ooooXXoXo+OO+oO+ XXXXoXXXXXXXXooooooXXooXooo@@O##@@oXXXoooo@@@@@",
"@@ooooXooo@@+OO+ XXXXXoooooXXooXXoooooooo@oo@@OO@Xooooooo@ooo@@@",
"@o@@oooo@oo@@oO+.oXooooooo@oooXXooo@ooo@@oo@@@O+ oXXXoo@oo@@@oo@",
"ooo@@o@@@@@o@@++ Xoooo@@@@oooooo@@@@@o@o@@@o@@O+ @ooXXoo@oo@@@oo",
"oooo@@ooo@@@@@O+ XXXXooo@@@oo@ooo@@@@@@@@+@@@@O+ ooXXo@@@@@@@@@@",
"@@@@oooo@o@@@@OO XXXo@oooo@@@o@@@o@@@@@@@@++@+++ XXXooo@@@@@@@@o",
"@@@@@@@@@@@@@@O+XXoo@@@@@@@@@@@@@@@@@@@@@@@+OO+O XXoXXooo@@@@@@@",
"@@@@@@@@@@@@@@OOXo@@@@@@@@@@@@@@@@@@@@@@@@@@@+O+XooooXXo@@@@@@@@",
"OOO+OOOOOOOOOOOOOOOOOOOOOOOOOOOOOOOOOOOO+OOOOOOOOOOOOOOOOOOOOOOO",
"OO+++O+OOOOOOOOOOOOOOOOOOOOOOOOOOO+OOO++++++OO++OOOOOOOOOOOOOOOO"
};
