/* XPM */
static char * whiteW_xpm[] = {
"64 64 7 1",
" 	c #CAD0D1",
".	c #DEE3E4",
"+	c #EDEFF0",
"@	c #BBC1C2",
"#	c #D5DADB",
"$	c #E6EAEA",
"%	c #B6BCBD",
" .++++++++++++.  .++++++++++++.  .++++++++++++.  .++++++++++++.@",
".@#..........#@##@#..........#@##@#..........#@##@#..........#@ ",
"+#@#........#@#$$#@#........#@#$$#@#........#@#$$#@#........#@ .",
"+.#@#......#@#$$$$#@#......#@#$$$$#@#......#@#$$$$#@#......#@ #.",
"+..#@#....#@#$$$$$$#@#....#@#$$$$$$#@#....#@#$$$$$$#@#....#@ ##.",
"+...#@@@@@@#$$$$$$$$#@@@@@@#$$$$$$$$#@@@@@@#$$$$$$$$#@@@@@@ ###.",
"+....@#$$$$$$$$$$$$$$######$$$$$$$$$$######$$$$$$$$$$$$$$#@####.",
"+....@$$$$$$$$$$$$$$$$$$$$$$$$$$$$$$$$$$$$$$$$$$$$$$$$$$$$@####.",
"+....@$$$$$$$$$$$$$$$$$$$$$$$$$$$$$$$$$$$$$$$$$$$$$$$$$$$$@####.",
"+....@$$$$$$$$$$$$$$$$$$$$$$$$$$$$$$$$$$$$$$$$$$$$$$$$$$$$@####.",
"+..@%%%%%#$$$$$$$$$$$$$$$$$$@%%%%%%.$$$$$$$$$$$$$$$$$$%%%%%%###.",
"+.. %%%%% $$$$$$$$$$$$$$$$$.%%%%%%%#$$$$$$$$$$$$$$$$$#%%%%%% ##.",
"+.#@%%%%%@$$$$$$$$$$$$$$$$$#%%%%%%% $$$$$$$$$$$$$$$$$ %%%%%@@ #.",
"+#@#%%%%%%.$$$$$$$$$$$$$$$$ %%%%%%%%$$$$$$$$$$$$$$$$$@%%%%%##@ .",
".@#$@%%%%%#$$$$$$$$$$$$$$$$@%%%%%%%%.$$$$$$$$$$$$$$$$%%%%%%.$#@ ",
" #$$ %%%%% $$$$$$$$$$$$$$$.%%%%%%%%%#$$$$$$$$$$$$$$$#%%%%%@$$$#%",
" #$$#%%%%%@$$$$$$$$$$$$$$$#%%%% %%%% $$$$$$$$$$$$$$$ %%%%% $$$#%",
".@#$$%%%%%%.$$$$$$$$$$$$$$ %%%%#@%%%%$$$$$$$$$$$$$$$@%%%%%#$$#@ ",
"+#@#$@%%%%%#$$$$$$$$$$$$$$@%%%%$ %%%%.$$$$$$$$$$$$$$%%%%%%.$#@ .",
"+.#@# %%%%% $$$$$$$$$$$$$.%%%%@$#%%%%#$$$$$$$$$$$$$#%%%%%@$#@ #.",
"+..#@ %%%%%@$$$$$$$$$$$$$#%%%% $.%%%% $$$$$$$$$$$$$ %%%%% #@ ##.",
"+...#@%%%%%%.$$$$$$$$$$$$ %%%%#$$@%%%@$$$$$$$$$$$$$@%%%%% @ ###.",
"+....@@%%%%%#$$$$$$$$$$$$@%%%%.$$ %%%%.$$$$$$$$$$$$%%%%%%#@####.",
"+....@ %%%%% $$$$$$$$$$$.%%%%@$$$#%%%%#$$$$$$$$$$$#%%%%%@#@####.",
"+....@ %%%%%@$$$$$$$$$$$#%%%% $$$.%%%% $$$$$$$$$$$ %%%%% #@####.",
"+....@#%%%%%%.$$$$$$$$$$ %%%%#$$$$%%%%@$$$$$$$$$$$@%%%%%##@####.",
"+...#@#@%%%%%#$$$$$$$$$$@%%%%.$$$$ %%%%.$$$$$$$$$$%%%%%%.#@ ###.",
"+..#@#$ %%%%% $$$$$$$$$.%%%%@$$$$$#%%%%#$$$$$$$$$#%%%%%@$$#@ ##.",
"+.#@#$$#%%%%%@$$$$$$$$$#%%%% $$$$$.%%%% $$$$$$$$$ %%%%% $$$#@ #.",
"+#@#$$$$%%%%%%.$$$$$$$$ %%%%#$$$$$$%%%%@$$$$$$$$$@%%%%%#$$$$#@ .",
".@#$$$$$@%%%%%#$$$$$$$$@%%%%.$$$$$$ %%%%.$$$$$$$$%%%%%%.$$$$$#@ ",
" #$$$$$$ %%%%% $$$$$$$.%%%%@$$$$$$$ %%%%#$$$$$$$#%%%%%@$$$$$$$#%",
" #$$$$$$#%%%%%@$$$$$$$#%%%% $$$$$$$.%%%% $$$$$$$ %%%%% $$$$$$$#%",
".@#$$$$$$%%%%%%.$$$$$$ %%%%#$$$$$$$$%%%%@$$$$$$$@%%%%%#$$$$$$#@ ",
"+#@#$$$$$@%%%%%#$$$$$$@%%%%.$$$$$$$$@%%%%.$$$$$$%%%%%%.$$$$$#@ .",
"+.#@#$$$$ %%%%% $$$$$.%%%%@$$$$$$$$$ %%%%#$$$$$#%%%%%@$$$$$#@ #.",
"+..#@#$$$#%%%%%@$$$$$#%%%% $$$$$$$$$#%%%% $$$$$ %%%%% $$$$#@ ##.",
"+...#@#$$$%%%%%%.$$$$ %%%%#$$$$$$$$$$%%%%@$$$$$@%%%%%#$$$#@ ###.",
"+....@#$$$@%%%%%#$$$$@%%%%.$$$$$$$$$$@%%%%.$$$$%%%%%%.$$$#@####.",
"+....@#$$$ %%%%% $$$.%%%%@$$$$$$$$$$$ %%%%#$$$#%%%%%@$$$$#@####.",
"+....@#$$$.%%%%%@$$$#%%%% $$$$$$$$$$$#%%%% $$$ %%%%% $$$$#@####.",
"+....@#$$$$%%%%%%.$$ %%%%#$$$$$$$$$$$$%%%%@$$$@%%%%%#$$$$#@####.",
"+...#@#$$$$@%%%%%#$$@%%%%.$$$$$$$$$$$$@%%%%.$$%%%%%%$$$$$#@ ###.",
"+..#@#$$$$$ %%%%% $.%%%%@$$$$$$$$$$$$$ %%%%#$#%%%%%@$$$$$$#@ ##.",
"+.#@#$$$$$$.%%%%%@$#%%%% $$$$$$$$$$$$$#%%%% $ %%%%% $$$$$$$#@ #.",
"+#@#$$$$$$$$%%%%%%. %%%%#$$$$$$$$$$$$$.%%%%@$@%%%%%#$$$$$$$$#@ .",
".@#$$$$$$$$$@%%%%%#@%%%%.$$$$$$$$$$$$$$@%%%%.%%%%%%$$$$$$$$$$#@ ",
" #$$$$$$$$$$ %%%%% %%%%@$$$$$$$$$$$$$$$ %%%% %%%%%@$$$$$$$$$$$#%",
" #$$$$$$$$$$.%%%%%%%%%% $$$$$$$$$$$$$$$#%%%%%%%%%% $$$$$$$$$$$#%",
".@#$$$$$$$$$$%%%%%%%%%%#$$$$$$$$$$$$$$$.%%%%%%%%%%#$$$$$$$$$$#@ ",
"+#@#$$$$$$$$$@%%%%%%%%%.$$$$$$$$$$$$$$$$@%%%%%%%%%$$$$$$$$$$#@ .",
"+.#@#$$$$$$$$ %%%%%%%%@$$$$$$$$$$$$$$$$$ %%%%%%%%@$$$$$$$$$#@ #.",
"+..#@#$$$$$$$.%%%%%%%% $$$$$$$$$$$$$$$$$#%%%%%%%% $$$$$$$$#@ ##.",
"+...#@$$$$$$$$%%%%%%%%#$$$$$$$$$$$$$$$$$.%%%%%%%%#$$$$$$$$@ ###.",
"+....@$$$$$$$$ %%%%%%%.$$$$$$$$$$$$$$$$$$@%%%%%%%$$$$$$$$$@####.",
"+....@$$$$$$$$$$$$$$$$$$$$$$$$$$$$$$$$$$$$$$$$$$$$$$$$$$$$@####.",
"+....@$$$$$$$$$$$$$$$$$$$$$$$$$$$$$$$$$$$$$$$$$$$$$$$$$$$$@####.",
"+....@#$$$$$$$$$$$$$$######$$$$$$$$$$######$$$$$$$$$$$$$$#@####.",
"+...#@@@@@@#$$$$$$$$#@@@@@@#$$$$$$$$#@@@@@@#$$$$$$$$#@@@@@@ ###.",
"+..#@ #### @#$$$$$$#@ #### @#$$$$$$#@ #### @#$$$$$$#@ #### @ ##.",
"+.#@ ###### @#$$$$#@ ###### @#$$$$#@ ###### @#$$$$#@ ###### @ #.",
"+#@ ######## @#$$#@ ######## @#$$#@ ######## @#$$#@ ######## @ .",
".@ ########## @##@ ########## @##@ ########## @##@ ########## @ ",
"@ ............ %% ............ %% ............ %% ............ %"};
