/* XPM */
static char * yellowS_xpm[] = {
"64 64 7 1",
" 	c #F5B317",
".	c #FABF1E",
"+	c #FDCC2A",
"@	c #EEAC13",
"#	c #F8B81A",
"$	c #FCC724",
"%	c #E9A711",
" .++++++++++++.  .++++++++++++.  .++++++++++++.  .++++++++++++.@",
".@#..........#@##@#..........#@##@#..........#@##@#..........#@ ",
"+#@#........#@#$$#@#........#@#$$#@#........#@#$$#@#........#@ .",
"+.#@#......#@#$$$$#@#......#@#$$$$#@#......#@#$$$$#@#......#@ #.",
"+..#@#....#@#$$$$$$#@#....#@#$$$$$$#@#....#@#$$$$$$#@#....#@ ##.",
"+...#@@@@@@#$$$$$$$$#@@@@@@#$$$$$$$$#@@@@@@#$$$$$$$$#@@@@@@ ###.",
"+....@#$$$$$$$$$$$$$$######$$$$$$$$$$######$$$$$$$$$$$$$$#@####.",
"+....@$$$$$$$$$$$$$$$$$$$$$$$$$$$$$$$$$$$$$$$$$$$$$$$$$$$$@####.",
"+....@$$$$$$$$$$$$$$$$$$$$$$$$$$$$$$$$$$$$$$$$$$$$$$$$$$$$@####.",
"+....@$$$$$$$$$$$$$$$$$$$$. @@@%%%@@@ #.$$$$$$$$$$$$$$$$$$@####.",
"+...#@$$$$$$$$$$$$$$$$$#@%%%%%%%%%%%%%%%%% #.$$$$$$$$$$$$$@ ###.",
"+..#@#$$$$$$$$$$$$$$$.@%%%%%%%%%%%%%%%%%%%%%%.$$$$$$$$$$$$#@ ##.",
"+.#@#$$$$$$$$$$$$$$$ %%%%%%%%%%%%%%%%%%%%%%%%.$$$$$$$$$$$$$#@ #.",
"+#@#$$$$$$$$$$$$$$$@%%%%%%%%%%%%%%%%%%%%%%%%%.$$$$$$$$$$$$$$#@ .",
".@#$$$$$$$$$$$$$$$ %%%%%%%%@#.$$$$$.. @%%%%%%.$$$$$$$$$$$$$$$#@ ",
" #$$$$$$$$$$$$$$$.%%%%%%% $$$$$$$$$$$$$$. %%%.$$$$$$$$$$$$$$$$#%",
" #$$$$$$$$$$$$$$$@%%%%%%.$$$$$$$$$$$$$$$$$$.@.$$$$$$$$$$$$$$$$#%",
".@#$$$$$$$$$$$$$.%%%%%%#$$$$$$$$$$$$$$$$$$$$$$$$$$$$$$$$$$$$$#@ ",
"+#@#$$$$$$$$$$$$#%%%%%@$$$$$$$$$$$$$$$$$$$$$$$$$$$$$$$$$$$$$#@ .",
"+.#@#$$$$$$$$$$$ %%%%%#$$$$$$$$$$$$$$$$$$$$$$$$$$$$$$$$$$$$#@ #.",
"+..#@#$$$$$$$$$$@%%%%%.$$$$$$$$$$$$$$$$$$$$$$$$$$$$$$$$$$$#@ ##.",
"+...#@#$$$$$$$$$@%%%%%.$$$$$$$$$$$$$$$$$$$$$$$$$$$$$$$$$$#@ ###.",
"+....@#$$$$$$$$$@%%%%%.$$$$$$$$$$$$$$$$$$$$$$$$$$$$$$$$$$#@####.",
"+....@#$$$$$$$$$@%%%%%#$$$$$$$$$$$$$$$$$$$$$$$$$$$$$$$$$$#@####.",
"+....@#$$$$$$$$$ %%%%%@$$$$$$$$$$$$$$$$$$$$$$$$$$$$$$$$$$#@####.",
"+....@#$$$$$$$$$#%%%%%% $$$$$$$$$$$$$$$$$$$$$$$$$$$$$$$$$#@####.",
"+...#@#$$$$$$$$$$%%%%%%%@.$$$$$$$$$$$$$$$$$$$$$$$$$$$$$$$#@ ###.",
"+..#@#$$$$$$$$$$$ %%%%%%%%@#.$$$$$$$$$$$$$$$$$$$$$$$$$$$$$#@ ##.",
"+.#@#$$$$$$$$$$$$$%%%%%%%%%%%%@#.$$$$$$$$$$$$$$$$$$$$$$$$$$#@ #.",
"+#@#$$$$$$$$$$$$$$.%%%%%%%%%%%%%%%@ #.$$$$$$$$$$$$$$$$$$$$$$#@ .",
".@#$$$$$$$$$$$$$$$$.%%%%%%%%%%%%%%%%%%@#$$$$$$$$$$$$$$$$$$$$$#@ ",
" #$$$$$$$$$$$$$$$$$$$ %%%%%%%%%%%%%%%%%%%#$$$$$$$$$$$$$$$$$$$$#%",
" #$$$$$$$$$$$$$$$$$$$$. %%%%%%%%%%%%%%%%%%@.$$$$$$$$$$$$$$$$$$#%",
".@#$$$$$$$$$$$$$$$$$$$$$$# @%%%%%%%%%%%%%%%%.$$$$$$$$$$$$$$$$#@ ",
"+#@#$$$$$$$$$$$$$$$$$$$$$$$$.# @%%%%%%%%%%%%%.$$$$$$$$$$$$$$#@ .",
"+.#@#$$$$$$$$$$$$$$$$$$$$$$$$$$$$.#@%%%%%%%%%%$$$$$$$$$$$$$#@ #.",
"+..#@#$$$$$$$$$$$$$$$$$$$$$$$$$$$$$$$ %%%%%%%% $$$$$$$$$$$#@ ##.",
"+...#@#$$$$$$$$$$$$$$$$$$$$$$$$$$$$$$$.@%%%%%%%$$$$$$$$$$#@ ###.",
"+....@#$$$$$$$$$$$$$$$$$$$$$$$$$$$$$$$$$@%%%%%%.$$$$$$$$$#@####.",
"+....@#$$$$$$$$$$$$$$$$$$$$$$$$$$$$$$$$$.%%%%%% $$$$$$$$$#@####.",
"+....@#$$$$$$$$$$$$$$$$$$$$$$$$$$$$$$$$$$@%%%%%@$$$$$$$$$#@####.",
"+....@#$$$$$$$$$$$$$$$$$$$$$$$$$$$$$$$$$$ %%%%%@$$$$$$$$$#@####.",
"+...#@#$$$$$$$$$$$$$$$$$$$$$$$$$$$$$$$$$$#%%%%%@$$$$$$$$$#@ ###.",
"+..#@#$$$$$$$$$$$$$$$$$$$$$$$$$$$$$$$$$$$#%%%%%@$$$$$$$$$$#@ ##.",
"+.#@#$$$$$$$$$$$$$$$$$$$$$$$$$$$$$$$$$$$$ %%%%%@$$$$$$$$$$$#@ #.",
"+#@#$$$$$$$$$$$$$$$$$$$$$$$$$$$$$$$$$$$$$@%%%%% $$$$$$$$$$$$#@ .",
".@#$$$$$$$$$$$$$$$$$$$$$$$$$$$$$$$$$$$$$.%%%%%%#$$$$$$$$$$$$$#@ ",
" #$$$$$$$$$$$$$$ #$$$$$$$$$$$$$$$$$$$$$$@%%%%%%$$$$$$$$$$$$$$$#%",
" #$$$$$$$$$$$$$$@%@#$$$$$$$$$$$$$$$$$$$@%%%%%%@$$$$$$$$$$$$$$$#%",
".@#$$$$$$$$$$$$$@%%%% .$$$$$$$$$$$$$$#@%%%%%%%.$$$$$$$$$$$$$$#@ ",
"+#@#$$$$$$$$$$$$@%%%%%%%@ ..$$$$$.. %%%%%%%%%#$$$$$$$$$$$$$$#@ .",
"+.#@#$$$$$$$$$$$@%%%%%%%%%%%%%%%%%%%%%%%%%%% $$$$$$$$$$$$$$#@ #.",
"+..#@#$$$$$$$$$$@%%%%%%%%%%%%%%%%%%%%%%%%%% $$$$$$$$$$$$$$#@ ##.",
"+...#@$$$$$$$$$$$#@%%%%%%%%%%%%%%%%%%%%%%@.$$$$$$$$$$$$$$$@ ###.",
"+....@$$$$$$$$$$$$$$# %%%%%%%%%%%%%%%%% .$$$$$$$$$$$$$$$$$@####.",
"+....@$$$$$$$$$$$$$$$$$..# @@%%%%@@ #.$$$$$$$$$$$$$$$$$$$$@####.",
"+....@$$$$$$$$$$$$$$$$$$$$$$$$$$$$$$$$$$$$$$$$$$$$$$$$$$$$@####.",
"+....@#$$$$$$$$$$$$$$######$$$$$$$$$$######$$$$$$$$$$$$$$#@####.",
"+...#@@@@@@#$$$$$$$$#@@@@@@#$$$$$$$$#@@@@@@#$$$$$$$$#@@@@@@ ###.",
"+..#@ #### @#$$$$$$#@ #### @#$$$$$$#@ #### @#$$$$$$#@ #### @ ##.",
"+.#@ ###### @#$$$$#@ ###### @#$$$$#@ ###### @#$$$$#@ ###### @ #.",
"+#@ ######## @#$$#@ ######## @#$$#@ ######## @#$$#@ ######## @ .",
".@ ########## @##@ ########## @##@ ########## @##@ ########## @ ",
"@ ............ %% ............ %% ............ %% ............ %"};
